<svg xmlns="http://www.w3.org/2000/svg" xmlns:xlink="http://www.w3.org/1999/xlink" xmlns:lucid="lucid" width="1666.65" height="1125"><g transform="translate(-93.35000000000002 -60)" lucid:page-tab-id="0_0"><path d="M0 0h1870.87v1322.83H0z" fill="#fff"/><path d="M500 226c0-3.3 2.7-6 6-6h368c3.3 0 6 2.7 6 6v788c0 3.3-2.7 6-6 6H506c-3.3 0-6-2.7-6-6z" fill="#fff" fill-opacity="0"/><path d="M536.67 220h30.66m15.34 0h30.66m15.34 0h30.66m15.34 0h30.66m15.34 0h30.66m15.34 0h30.66m15.34 0h30.66m15.34 0H874l3.03.82 2.15 2.15.82 3.03v14.6m0 14.6v29.17m0 14.6v29.18m0 14.6v29.18m0 14.6v29.17m0 14.6v29.18m0 14.6v29.18m0 14.6v29.18m0 14.6v29.17m0 14.6v29.2m0 14.6v29.17m0 14.6v29.18m0 14.6v29.18m0 14.6v29.17m0 14.6v29.18m0 14.6v29.18m0 14.6v29.18m0 14.6v29.17m0 14.6v14.6l-.82 3.03-2.15 2.15-3.03.82h-15.33m-15.34 0h-30.66m-15.34 0h-30.66m-15.34 0h-30.66m-15.34 0h-30.66m-15.34 0h-30.66m-15.34 0h-30.66m-15.34 0h-30.66m-15.34 0H506l-3.03-.82-2.15-2.15-.82-3.03v-14.6m0-14.6v-29.17m0-14.6v-29.18m0-14.6v-29.18m0-14.6V824.3m0-14.6v-29.18m0-14.6v-29.18m0-14.6v-29.18m0-14.6V649.2m0-14.6v-29.2m0-14.6v-29.17m0-14.6v-29.18m0-14.6v-29.18m0-14.6V430.3m0-14.6v-29.18m0-14.6v-29.18m0-14.6v-29.18m0-14.6V255.2m0-14.6V226l.82-3.03 2.15-2.15L506 220h15.33" stroke="#0e76d4" stroke-width="3" fill="none"/><path d="M500 220h56v56h-56v-56z" stroke="#000" stroke-opacity="0" fill-opacity="0"/><path d="M528.05 245.6c-.07 0-.12-.03-.2-.07l-11.77-6.78c-.1-.08-.17-.2-.17-.32 0-.13.1-.24.18-.3l11.7-6.75c.12-.06.24-.06.37 0l11.77 6.8c.1.05.17.18.17.3 0 .14-.1.25-.18.3l-11.7 6.75c-.05.04-.12.06-.17.06z" stroke="#000" stroke-opacity="0" fill="#3999c6"/><path d="M526.35 262.1c-.06 0-.13-.02-.2-.04l-11.7-6.8c-.13-.05-.2-.16-.2-.3V241.4c0-.12.07-.25.2-.3.1-.08.23-.08.34 0l11.72 6.77c.1.07.18.17.18.3v13.6c0 .12-.07.24-.18.3-.06.03-.1.05-.17.05zM529.67 262.1c-.06 0-.13-.02-.2-.04-.1-.07-.16-.2-.16-.32v-13.5c0-.12.07-.24.18-.3l11.73-6.78c.12-.07.26-.07.37 0 .1.06.18.2.18.3v13.5c0 .15-.07.25-.18.32l-11.73 6.78c-.05.02-.1.04-.17.04z" stroke="#000" stroke-opacity="0" fill="#59b4d9"/><path d="M529.67 262.1c-.06 0-.13-.02-.2-.04-.1-.07-.16-.2-.16-.32v-13.5c0-.12.07-.24.18-.3l11.73-6.78c.12-.07.26-.07.37 0 .1.06.18.2.18.3v13.5c0 .15-.07.25-.18.32l-11.73 6.78c-.05.02-.1.04-.17.04z" stroke="#000" stroke-opacity="0" fill="#fff" fill-opacity="0"/><path d="M515.65 263.6c-.2 0-.4-.06-.58-.15l-5.48-3.17c-.93-.5-1.6-1.68-1.6-2.74V237.4c0-1.06.67-2.23 1.6-2.74l5.47-3.16c.55-.33 1.27-.13 1.58.42.33.54.14 1.25-.42 1.58l-5.48 3.16c-.2.13-.42.52-.42.74v20.14c0 .23.23.6.42.74l5.48 3.16c.56.33.75 1.04.42 1.6-.2.37-.6.57-1 .57zM540.35 231.33c.2 0 .4.07.58.16l5.48 3.16c.93.5 1.6 1.68 1.6 2.74v20.14c0 1.06-.67 2.23-1.6 2.74l-5.47 3.16c-.55.33-1.27.13-1.58-.4-.33-.56-.14-1.27.42-1.6l5.48-3.16c.2-.13.42-.52.42-.74V237.4c0-.23-.23-.6-.42-.74l-5.48-3.16c-.56-.33-.75-1.04-.42-1.6.2-.37.6-.57 1-.57z" stroke="#000" stroke-opacity="0" fill="#7a7a7a"/><use xlink:href="#a" transform="matrix(1,0,0,1,576,240) translate(0 14.4)"/><use xlink:href="#b" transform="matrix(1,0,0,1,576,240) translate(81.9 14.4)"/><path d="M1420 86c0-3.3 2.7-6 6-6h308c3.3 0 6 2.7 6 6v388c0 3.3-2.7 6-6 6h-308c-3.3 0-6-2.7-6-6z" fill="#fff" fill-opacity="0"/><path d="M1455.33 80h29.34m14.66 0h29.34m14.66 0h29.34m14.66 0h29.34m14.66 0h29.34m14.66 0h29.34m14.66 0H1734l3.03.82 2.15 2.15.82 3.03v14.37m0 14.37v28.74m0 14.37v28.74m0 14.36v28.74m0 14.37v28.74m0 14.4v28.73m0 14.37v28.74m0 14.37v28.75m0 14.37v28.74m0 14.37V474l-.82 3.03-2.15 2.15-3.03.82h-14.67m-14.66 0h-29.34m-14.66 0h-29.34m-14.66 0h-29.34m-14.66 0h-29.34m-14.66 0h-29.34m-14.66 0h-29.34m-14.66 0H1426l-3.03-.82-2.15-2.15-.82-3.03v-14.37m0-14.37v-28.74m0-14.37V373.4m0-14.36V330.3m0-14.37V287.2m0-14.4v-28.73m0-14.37v-28.74m0-14.37v-28.75m0-14.37v-28.74m0-14.37V86l.82-3.03 2.15-2.15L1426 80h14.67" stroke="#0e76d4" stroke-width="3" fill="none"/><path d="M1420 80h56v56h-56V80z" stroke="#000" stroke-opacity="0" fill-opacity="0"/><path d="M1448.05 105.6c-.07 0-.12-.03-.2-.07l-11.77-6.78c-.1-.08-.17-.2-.17-.32 0-.13.1-.24.18-.3l11.7-6.75c.12-.06.24-.06.37 0l11.77 6.8c.1.05.17.18.17.3 0 .14-.1.25-.18.3l-11.7 6.75c-.05.04-.12.06-.17.06z" stroke="#000" stroke-opacity="0" fill="#3999c6"/><path d="M1446.35 122.1c-.06 0-.13-.02-.2-.04l-11.7-6.8c-.13-.05-.2-.16-.2-.3V101.4c0-.12.07-.25.2-.3.1-.08.23-.08.34 0l11.72 6.77c.1.07.18.17.18.3v13.6c0 .12-.07.24-.18.3-.06.03-.1.05-.17.05zM1449.67 122.1c-.06 0-.13-.02-.2-.04-.1-.07-.16-.2-.16-.32v-13.5c0-.12.07-.24.18-.3l11.73-6.78c.12-.07.26-.07.37 0 .1.06.18.2.18.3v13.5c0 .15-.07.25-.18.32l-11.73 6.78c-.05.02-.1.04-.17.04z" stroke="#000" stroke-opacity="0" fill="#59b4d9"/><path d="M1449.67 122.1c-.06 0-.13-.02-.2-.04-.1-.07-.16-.2-.16-.32v-13.5c0-.12.07-.24.18-.3l11.73-6.78c.12-.07.26-.07.37 0 .1.06.18.2.18.3v13.5c0 .15-.07.25-.18.32l-11.73 6.78c-.05.02-.1.04-.17.04z" stroke="#000" stroke-opacity="0" fill="#fff" fill-opacity="0"/><path d="M1435.65 123.6c-.2 0-.4-.06-.58-.15l-5.48-3.17c-.93-.5-1.6-1.68-1.6-2.74V97.4c0-1.06.67-2.23 1.6-2.74l5.47-3.16c.55-.33 1.27-.13 1.58.42.33.54.14 1.25-.42 1.58l-5.48 3.16c-.2.13-.42.52-.42.74v20.14c0 .23.23.6.42.74l5.48 3.16c.56.33.75 1.04.42 1.6-.2.37-.6.57-1 .57zM1460.35 91.33c.2 0 .4.07.58.16l5.48 3.16c.93.5 1.6 1.68 1.6 2.74v20.14c0 1.06-.67 2.23-1.6 2.74l-5.47 3.16c-.55.33-1.27.13-1.58-.4-.33-.56-.14-1.27.42-1.6l5.48-3.16c.2-.13.42-.52.42-.74V97.4c0-.23-.23-.6-.42-.74l-5.48-3.16c-.56-.33-.75-1.04-.42-1.6.2-.37.6-.57 1-.57z" stroke="#000" stroke-opacity="0" fill="#7a7a7a"/><use xlink:href="#a" transform="matrix(1,0,0,1,1496,100) translate(0 14.4)"/><use xlink:href="#b" transform="matrix(1,0,0,1,1496,100) translate(81.9 14.4)"/><path d="M1420 706c0-3.3 2.7-6 6-6h308c3.3 0 6 2.7 6 6v388c0 3.3-2.7 6-6 6h-308c-3.3 0-6-2.7-6-6z" fill="#fff" fill-opacity="0"/><path d="M1455.33 700h29.34m14.66 0h29.34m14.66 0h29.34m14.66 0h29.34m14.66 0h29.34m14.66 0h29.34m14.66 0H1734l3.03.82 2.15 2.15.82 3.03v14.37m0 14.37v28.74m0 14.37v28.74m0 14.36v28.74m0 14.37v28.74m0 14.4v28.73m0 14.37v28.74m0 14.37v28.75m0 14.37v28.74m0 14.37V1094l-.82 3.03-2.15 2.15-3.03.82h-14.67m-14.66 0h-29.34m-14.66 0h-29.34m-14.66 0h-29.34m-14.66 0h-29.34m-14.66 0h-29.34m-14.66 0h-29.34m-14.66 0H1426l-3.03-.82-2.15-2.15-.82-3.03v-14.37m0-14.37v-28.74m0-14.37V993.4m0-14.36V950.3m0-14.37V907.2m0-14.4v-28.73m0-14.37v-28.74m0-14.37v-28.75m0-14.37v-28.74m0-14.37V706l.82-3.03 2.15-2.15 3.03-.82h14.67" stroke="#0e76d4" stroke-width="3" fill="none"/><path d="M1420 700h56v56h-56v-56z" stroke="#000" stroke-opacity="0" fill-opacity="0"/><path d="M1448.05 725.6c-.07 0-.12-.03-.2-.07l-11.77-6.78c-.1-.08-.17-.2-.17-.32 0-.13.1-.24.18-.3l11.7-6.75c.12-.06.24-.06.37 0l11.77 6.8c.1.05.17.18.17.3 0 .14-.1.25-.18.3l-11.7 6.75c-.05.04-.12.06-.17.06z" stroke="#000" stroke-opacity="0" fill="#3999c6"/><path d="M1446.35 742.1c-.06 0-.13-.02-.2-.04l-11.7-6.8c-.13-.05-.2-.16-.2-.3V721.4c0-.12.07-.25.2-.3.1-.08.23-.08.34 0l11.72 6.77c.1.07.18.17.18.3v13.6c0 .12-.07.24-.18.3-.06.03-.1.05-.17.05zM1449.67 742.1c-.06 0-.13-.02-.2-.04-.1-.07-.16-.2-.16-.32v-13.5c0-.12.07-.24.18-.3l11.73-6.78c.12-.07.26-.07.37 0 .1.06.18.2.18.3v13.5c0 .15-.07.25-.18.32l-11.73 6.78c-.05.02-.1.04-.17.04z" stroke="#000" stroke-opacity="0" fill="#59b4d9"/><path d="M1449.67 742.1c-.06 0-.13-.02-.2-.04-.1-.07-.16-.2-.16-.32v-13.5c0-.12.07-.24.18-.3l11.73-6.78c.12-.07.26-.07.37 0 .1.06.18.2.18.3v13.5c0 .15-.07.25-.18.32l-11.73 6.78c-.05.02-.1.04-.17.04z" stroke="#000" stroke-opacity="0" fill="#fff" fill-opacity="0"/><path d="M1435.65 743.6c-.2 0-.4-.06-.58-.15l-5.48-3.17c-.93-.5-1.6-1.68-1.6-2.74V717.4c0-1.06.67-2.23 1.6-2.74l5.47-3.16c.55-.33 1.27-.13 1.58.42.33.54.14 1.25-.42 1.58l-5.48 3.16c-.2.13-.42.52-.42.74v20.14c0 .23.23.6.42.74l5.48 3.16c.56.33.75 1.04.42 1.6-.2.37-.6.57-1 .57zM1460.35 711.33c.2 0 .4.07.58.16l5.48 3.16c.93.5 1.6 1.68 1.6 2.74v20.14c0 1.06-.67 2.23-1.6 2.74l-5.47 3.16c-.55.33-1.27.13-1.58-.4-.33-.56-.14-1.27.42-1.6l5.48-3.16c.2-.13.42-.52.42-.74V717.4c0-.23-.23-.6-.42-.74l-5.48-3.16c-.56-.33-.75-1.04-.42-1.6.2-.37.6-.57 1-.57z" stroke="#000" stroke-opacity="0" fill="#7a7a7a"/><use xlink:href="#a" transform="matrix(1,0,0,1,1496,720) translate(0 14.4)"/><use xlink:href="#b" transform="matrix(1,0,0,1,1496,720) translate(81.9 14.4)"/><path d="M200 560h120v120H200V560z" stroke="#fff" stroke-opacity="0" stroke-width="2" fill="#d86613"/><path d="M296.8 660h-19.72c-.64 0-1.15-.32-1.4-.88l-27.92-58.32h-11.78c-.9 0-1.6-.72-1.6-1.6v-17.6c0-.88.7-1.6 1.6-1.6h24.65c.64 0 1.15.32 1.4.88l27.8 58.32h6.97c.9 0 1.6.72 1.6 1.6v17.6c0 .88-.7 1.6-1.6 1.6zm-18.7-3.2h17.1v-14.4h-6.4c-.64 0-1.15-.32-1.4-.88l-27.8-58.32H237.6v14.4h11.2c.65 0 1.16.32 1.48.88z" stroke="#fff" stroke-opacity="0" stroke-width="2" fill="#fff"/><path d="M243.96 660h-20.8c-.55 0-1.05-.3-1.37-.73-.33-.54-.33-1.12-.08-1.6l21.78-45.46c.24-.58.8-.92 1.4-.92.65 0 1.18.34 1.46.88l10.4 21.43c.26.43.26.92 0 1.4L245.42 659c-.2.63-.77 1.02-1.44 1.02zm-18.24-3.22h17.24l10.6-22.36-8.6-17.88z" stroke="#fff" stroke-opacity="0" stroke-width="2" fill="#fff"/><use xlink:href="#c" transform="matrix(1,0,0,1,170,689) translate(21.944444444444443 17.77777777777778)"/><use xlink:href="#d" transform="matrix(1,0,0,1,170,689) translate(77.87037037037035 17.77777777777778)"/><path d="M1060 480h120v120h-120V480z" stroke="#fff" stroke-opacity="0" stroke-width="2" fill="#d86613"/><path d="M1156.8 580h-19.72c-.64 0-1.15-.32-1.4-.88l-27.92-58.32h-11.78c-.9 0-1.6-.72-1.6-1.6v-17.6c0-.88.7-1.6 1.6-1.6h24.65c.64 0 1.15.32 1.4.88l27.8 58.32h6.97c.9 0 1.6.72 1.6 1.6v17.6c0 .88-.7 1.6-1.6 1.6zm-18.7-3.2h17.1v-14.4h-6.4c-.64 0-1.15-.32-1.4-.88l-27.8-58.32h-22.02v14.4h11.2c.65 0 1.16.32 1.48.88z" stroke="#fff" stroke-opacity="0" stroke-width="2" fill="#fff"/><path d="M1103.96 580h-20.8c-.55 0-1.05-.3-1.37-.73-.33-.54-.33-1.12-.08-1.6l21.78-45.46c.24-.58.8-.92 1.4-.92.65 0 1.18.34 1.46.88l10.4 21.43c.26.43.26.92 0 1.4L1105.42 579c-.2.63-.77 1.02-1.44 1.02zm-18.24-3.22h17.24l10.6-22.36-8.6-17.88z" stroke="#fff" stroke-opacity="0" stroke-width="2" fill="#fff"/><use xlink:href="#c" transform="matrix(1,0,0,1,1030,609) translate(21.944444444444443 17.77777777777778)"/><use xlink:href="#d" transform="matrix(1,0,0,1,1030,609) translate(77.87037037037035 17.77777777777778)"/><path d="M256.04 180c-10.83 0-28.1-2.46-28.3-9.1L220 113.7c-.14-.97.43-1.86 1.37-2.06.94-.14 1.88.47 2.1 1.43.8 3.28 13.65 7.86 32.64 7.86 19 0 31.87-4.58 32.66-7.86.22-.96 1.16-1.57 2.1-1.43.94.2 1.5 1.1 1.37 2.05l-7.87 57.2c0 2.26-2.1 4.18-6 5.75-1.8.68-3.4 1.16-5.27 1.57-5.93 1.3-11 1.78-17.06 1.78zm-31.92-61.66l6.93 52.3v.2c0 2.05 9.75 5.8 24.92 5.8 5.78.08 10.62-.47 16.25-1.63 1.73-.4 3.18-.88 4.84-1.56 3.1-1.23 3.83-2.33 3.83-2.67v-.2l7-52.23c-6.58 3.9-19.8 6-31.93 6-12.13 0-25.28-2.1-31.85-6z" stroke="#fff" stroke-opacity="0" fill="#3f8624"/><path d="M256.06 124.32c-16.15 0-34.25-3.65-35.98-10.4V112.98v-.23c0-7.52 19.03-12.77 36.12-12.77 17.1 0 35.98 5.25 35.98 12.77v.22l-.07.7v.2c-1.87 6.77-19.97 10.42-36.04 10.42zm-32.67-11.2c1.08 3.3 13.84 7.8 32.66 7.8 18.8 0 31.58-4.5 32.66-7.8v-.45c-.22-3.3-13.63-9.26-32.66-9.26-19.04 0-32.52 5.96-32.74 9.27zM292.23 147.86c-8.07 0-25.83-8-36.92-13.46l1.5-3.06c15.3 7.53 33.36 14.5 36.46 13.18-.24-.48-1.4-2.02-6.83-4.97l-.24-.17 1.68-2.96.25.17c5.47 2.98 8.07 5.3 8.53 7.5.16.93-.08 1.83-.7 2.57-1.04.95-2.32 1.36-3.73 1.2z" stroke="#fff" stroke-opacity="0" fill="#3f8624"/><path d="M256.05 136.6c-2.03 0-3.7-1.66-3.7-3.7s1.67-3.7 3.7-3.7c2.04 0 3.7 1.66 3.7 3.7s-1.66 3.7-3.7 3.7zm0-4c-.17 0-.3.14-.3.3 0 .33.6.33.6 0v-.04c0-.16-.13-.28-.3-.28z" stroke="#fff" stroke-opacity="0" fill="#3f8624"/><use xlink:href="#e" transform="matrix(1,0,0,1,190,189) translate(34.54938271604938 17.77777777777778)"/><path d="M729.52 308.03c0 11.84-9.63 21.46-21.5 21.46-11.86 0-21.5-9.63-21.5-21.47 0-11.85 9.64-21.47 21.5-21.47 11.87 0 21.5 9.62 21.5 21.47z" fill="#4b612c"/><path d="M708.02 331.97c-13.23 0-23.97-10.72-23.97-23.94 0-13.2 10.74-23.94 23.97-23.94 13.23 0 23.97 10.72 23.97 23.93 0 13.22-10.75 23.94-23.98 23.94zm0-42.95c-10.5 0-19.03 8.53-19.03 19 0 10.5 8.52 19.02 19.02 19.02s19.03-8.52 19.03-19c-.05-10.5-8.53-18.97-19.03-19.02z" fill="#4b612c"/><path d="M729.52 303.93c0 11.85-9.63 21.47-21.5 21.47-11.86 0-21.5-9.62-21.5-21.47 0-11.84 9.64-21.46 21.5-21.46 11.87 0 21.5 9.62 21.5 21.46z" fill="#fff"/><path d="M708.02 327.88c-13.23 0-23.97-10.73-23.97-23.94 0-13.2 10.74-23.94 23.97-23.94 13.23 0 23.97 10.73 23.97 23.94 0 13.2-10.75 23.94-23.98 23.94zm0-42.95c-10.5 0-19.03 8.52-19.03 19 0 10.5 8.52 19.02 19.02 19.02s19.03-8.52 19.03-19c-.05-10.5-8.53-18.97-19.03-19.02z" fill="#4f4f4f"/><path d="M698.07 303.1h11.58v4.96h-11.58v-4.95z" fill="#4f4f4f"/><path d="M707.2 288.98h4.96v19.08h-4.96v-19.08z" fill="#4f4f4f"/><path d="M643.22 340.07h17.7v43.66h-17.7v-43.66zM671.2 348.57h17.7v35.15h-17.7v-35.15zM720.1 390.65V400H640v-9.35h80.1zM699.17 334.82v48.9h17.7v-48.9c-5.7 3.08-12 3.08-17.7 0z" fill="#4b612c"/><path d="M643.22 335.97h17.7v43.65h-17.7v-43.65zM671.2 344.48h17.7v35.14h-17.7v-35.14zM720.1 386.55v9.33H640v-9.33h80.1zM699.17 330.72v48.9h17.7v-48.9c-5.7 3.08-12 3.08-17.7 0z" fill="#759c3e"/><use xlink:href="#f" transform="matrix(1,0,0,1,640,400) translate(18.839506172839506 17.77777777777778)"/><use xlink:href="#g" transform="matrix(1,0,0,1,640,400) translate(-16.191358024691368 44.44444444444444)"/><path d="M729.52 568.03c0 11.84-9.63 21.46-21.5 21.46-11.86 0-21.5-9.63-21.5-21.47 0-11.85 9.64-21.47 21.5-21.47 11.87 0 21.5 9.62 21.5 21.47z" fill="#4b612c"/><path d="M708.02 591.97c-13.23 0-23.97-10.72-23.97-23.94 0-13.2 10.74-23.94 23.97-23.94 13.23 0 23.97 10.72 23.97 23.93 0 13.22-10.75 23.94-23.98 23.94zm0-42.95c-10.5 0-19.03 8.53-19.03 19 0 10.5 8.52 19.02 19.02 19.02s19.03-8.52 19.03-19c-.05-10.5-8.53-18.97-19.03-19.02z" fill="#4b612c"/><path d="M729.52 563.93c0 11.85-9.63 21.47-21.5 21.47-11.86 0-21.5-9.62-21.5-21.47 0-11.84 9.64-21.46 21.5-21.46 11.87 0 21.5 9.62 21.5 21.46z" fill="#fff"/><path d="M708.02 587.88c-13.23 0-23.97-10.73-23.97-23.94 0-13.2 10.74-23.94 23.97-23.94 13.23 0 23.97 10.73 23.97 23.94 0 13.2-10.75 23.94-23.98 23.94zm0-42.95c-10.5 0-19.03 8.52-19.03 19 0 10.5 8.52 19.02 19.02 19.02s19.03-8.52 19.03-19c-.05-10.5-8.53-18.97-19.03-19.02z" fill="#4f4f4f"/><path d="M698.07 563.1h11.58v4.96h-11.58v-4.95z" fill="#4f4f4f"/><path d="M707.2 548.98h4.96v19.08h-4.96v-19.08z" fill="#4f4f4f"/><path d="M643.22 600.07h17.7v43.66h-17.7v-43.66zM671.2 608.57h17.7v35.15h-17.7v-35.15zM720.1 650.65V660H640v-9.35h80.1zM699.17 594.82v48.9h17.7v-48.9c-5.7 3.08-12 3.08-17.7 0z" fill="#4b612c"/><path d="M643.22 595.97h17.7v43.65h-17.7v-43.65zM671.2 604.48h17.7v35.14h-17.7v-35.14zM720.1 646.55v9.33H640v-9.33h80.1zM699.17 590.72v48.9h17.7v-48.9c-5.7 3.08-12 3.08-17.7 0z" fill="#759c3e"/><use xlink:href="#f" transform="matrix(1,0,0,1,640,660) translate(18.839506172839506 17.77777777777778)"/><use xlink:href="#g" transform="matrix(1,0,0,1,640,660) translate(-16.191358024691368 44.44444444444444)"/><path d="M729.52 788.03c0 11.84-9.63 21.46-21.5 21.46-11.86 0-21.5-9.63-21.5-21.47 0-11.85 9.64-21.47 21.5-21.47 11.87 0 21.5 9.62 21.5 21.47z" fill="#4b612c"/><path d="M708.02 811.97c-13.23 0-23.97-10.72-23.97-23.94 0-13.2 10.74-23.94 23.97-23.94 13.23 0 23.97 10.72 23.97 23.93 0 13.22-10.75 23.94-23.98 23.94zm0-42.95c-10.5 0-19.03 8.53-19.03 19 0 10.5 8.52 19.02 19.02 19.02s19.03-8.52 19.03-19c-.05-10.5-8.53-18.97-19.03-19.02z" fill="#4b612c"/><path d="M729.52 783.93c0 11.85-9.63 21.47-21.5 21.47-11.86 0-21.5-9.62-21.5-21.47 0-11.84 9.64-21.46 21.5-21.46 11.87 0 21.5 9.62 21.5 21.46z" fill="#fff"/><path d="M708.02 807.88c-13.23 0-23.97-10.73-23.97-23.94 0-13.2 10.74-23.94 23.97-23.94 13.23 0 23.97 10.73 23.97 23.94 0 13.2-10.75 23.94-23.98 23.94zm0-42.95c-10.5 0-19.03 8.52-19.03 19 0 10.5 8.52 19.02 19.02 19.02s19.03-8.52 19.03-19c-.05-10.5-8.53-18.97-19.03-19.02z" fill="#4f4f4f"/><path d="M698.07 783.1h11.58v4.96h-11.58v-4.95z" fill="#4f4f4f"/><path d="M707.2 768.98h4.96v19.08h-4.96v-19.08z" fill="#4f4f4f"/><path d="M643.22 820.07h17.7v43.66h-17.7v-43.66zM671.2 828.57h17.7v35.15h-17.7v-35.15zM720.1 870.65V880H640v-9.35h80.1zM699.17 814.82v48.9h17.7v-48.9c-5.7 3.08-12 3.08-17.7 0z" fill="#4b612c"/><path d="M643.22 815.97h17.7v43.65h-17.7v-43.65zM671.2 824.48h17.7v35.14h-17.7v-35.14zM720.1 866.55v9.33H640v-9.33h80.1zM699.17 810.72v48.9h17.7v-48.9c-5.7 3.08-12 3.08-17.7 0z" fill="#759c3e"/><use xlink:href="#f" transform="matrix(1,0,0,1,640,880) translate(18.839506172839506 17.77777777777778)"/><use xlink:href="#g" transform="matrix(1,0,0,1,640,880) translate(-16.191358024691368 44.44444444444444)"/><path d="M689.9 633h33c3.3 0 6-2.7 6-6v-56.52c0-3.32-2.7-6-6-6h-28c-3.32 0-6 2.68-6 6v15.5" stroke="#5e5e5e" stroke-width="2" fill="none"/><path d="M689.9 634h-1v-2h1" fill="#5e5e5e"/><path d="M688.9 601.24l-4.65-14.27h9.27z" stroke="#5e5e5e" stroke-width="2" fill="#5e5e5e"/><path d="M321 620h159" stroke="#5e5e5e" stroke-width="2" fill="none"/><path d="M321.03 621H320v-2h1.03" fill="#5e5e5e"/><path d="M495.26 620L481 624.64v-9.28z" stroke="#5e5e5e" stroke-width="2" fill="#5e5e5e"/><path d="M882.5 620H924c3.3 0 6-2.7 6-6v-68c0-3.3 2.7-6 6-6h105.5" stroke="#5e5e5e" stroke-width="2" fill="none"/><path d="M882.53 621h-1.03v-2h1.03" fill="#5e5e5e"/><path d="M1056.76 540l-14.26 4.64v-9.28z" stroke="#5e5e5e" stroke-width="2" fill="#5e5e5e"/><path d="M258.35 180.76V541.5" stroke="#5e5e5e" stroke-width="2" fill="none"/><path d="M259.35 180.78h-2v-.92l2-.2" fill="#5e5e5e"/><path d="M258.35 556.76l-4.64-14.26h9.3z" stroke="#5e5e5e" stroke-width="2" fill="#5e5e5e"/><path d="M1576.48 275.07h52c6.5 0 6.5 0 6.5 6.5v51.93c0 6.5 0 6.5-6.5 6.5h-52c-6.5 0-6.5 0-6.5-6.5v-51.94c0-6.5 0-6.5 6.5-6.5zM1578.47 225.36h-51.97c-3.58 0-6.5 2.92-6.5 6.5v51.9c0 3.57 2.92 6.5 6.5 6.5h12V256.7c0-7.13 5.8-12.97 13-12.97h33.46v-11.88c0-3.57-2.92-6.5-6.5-6.5z" fill="#9d5025"/><path d="M1603.46 250.22h-51.97c-3.6 0-6.5 2.92-6.5 6.48v51.9c0 3.58 2.9 6.5 6.5 6.5h12v-33.55c0-7.13 5.85-12.97 13-12.97h33.45V256.7c0-3.56-2.92-6.48-6.5-6.48z" fill="#9d5025"/><path d="M1576.48 269.7h52c6.5 0 6.5 0 6.5 6.5v51.93c0 6.5 0 6.5-6.5 6.5h-52c-6.5 0-6.5 0-6.5-6.5V276.2c0-6.5 0-6.5 6.5-6.5zM1578.47 220h-51.97c-3.58 0-6.5 2.92-6.5 6.5v51.9c0 3.56 2.92 6.48 6.5 6.48h12v-33.54c0-7.14 5.8-12.98 13-12.98h33.46V226.5c0-3.58-2.92-6.5-6.5-6.5z" fill="#f58536"/><path d="M1603.46 244.85h-51.97c-3.6 0-6.5 2.92-6.5 6.5v51.9c0 3.57 2.9 6.5 6.5 6.5h12v-33.56c0-7.15 5.85-13 13-13h33.45v-11.86c0-3.57-2.92-6.5-6.5-6.5z" fill="#f58536"/><use xlink:href="#h" transform="matrix(1,0,0,1,1520,340) translate(10.617283950617285 17.77777777777778)"/><path d="M1515 805.6h120V867h-120v-61.4z" fill="#9d5025"/><path d="M1515 800h120v61.4h-120V800z" fill="#f58536"/><path d="M1540.92 803.67h5.65v54.08h-5.65v-54.08zM1520.1 803.67h5.64v54.08h-5.65v-54.08zM1530.5 803.67h5.66v54.08h-5.66v-54.08zM1603.4 803.67h5.66v54.08h-5.66v-54.08zM1613.82 803.67h5.65v54.08h-5.65v-54.08zM1624.24 803.67h5.65v54.08h-5.66v-54.08z" fill="#fbbf93"/><path d="M1521.56 805.13h4.2v52.62h-4.2v-52.62zM1531.98 805.13h4.2v52.62h-4.2v-52.62zM1542.4 805.13h4.18v52.62h-4.18v-52.62zM1604.88 805.13h4.2v52.62h-4.2v-52.62zM1615.3 805.13h4.18v52.62h-4.18v-52.62zM1625.7 805.13h4.2v52.62h-4.2v-52.62z" fill="#fff"/><path d="M1566.78 816.9h16.45c5.67 0 5.67 0 5.67 5.64v16.37c0 5.65 0 5.65-5.67 5.65h-16.45c-5.66 0-5.66 0-5.66-5.64v-16.36c0-5.64 0-5.64 5.66-5.64z" fill="#d16929"/><path d="M1583.2 846.24h-16.43c-4.05 0-7.36-3.3-7.36-7.33v-16.37c0-4.03 3.32-7.32 7.37-7.32h16.46c4.05 0 7.36 3.3 7.36 7.33v16.38c0 4.05-3.32 7.34-7.37 7.34h-.03zm-16.43-27.65c-2.18 0-3.96 1.76-3.96 3.93v16.38c0 2.2 1.8 3.95 3.97 3.95h16.46c2.18 0 3.96-1.76 3.96-3.94v-16.37c0-2.17-1.8-3.94-3.97-3.94z" fill="#fff"/><path d="M1566.23 818.6c-.93 0-1.7-.77-1.7-1.7v-6.2c0-.93.77-1.7 1.7-1.7.94 0 1.7.77 1.7 1.7v6.2c0 .93-.76 1.7-1.7 1.7zM1572.03 818.6c-.94 0-1.7-.77-1.7-1.7v-6.2c0-.93.76-1.7 1.7-1.7s1.7.77 1.7 1.7v6.2c0 .93-.76 1.7-1.7 1.7zM1577.8 818.6c-.94 0-1.7-.77-1.7-1.7v-6.2c0-.93.76-1.7 1.7-1.7s1.7.77 1.7 1.7v6.2c0 .93-.76 1.7-1.7 1.7zM1583.6 818.6c-.94 0-1.7-.77-1.7-1.7v-6.2c0-.93.76-1.7 1.7-1.7s1.7.77 1.7 1.7v6.2c0 .93-.76 1.7-1.7 1.7zM1566.23 852.43c-.93 0-1.7-.75-1.7-1.68v-6.2c0-.93.77-1.7 1.7-1.7.94 0 1.7.77 1.7 1.7v6.2c0 .93-.76 1.68-1.7 1.68zM1572.03 852.43c-.94 0-1.7-.75-1.7-1.68v-6.2c0-.93.76-1.7 1.7-1.7s1.7.77 1.7 1.7v6.2c0 .93-.76 1.68-1.7 1.68zM1577.8 852.43c-.94 0-1.7-.75-1.7-1.68v-6.2c0-.93.76-1.7 1.7-1.7s1.7.77 1.7 1.7v6.2c0 .93-.76 1.68-1.7 1.68zM1583.6 852.43c-.94 0-1.7-.75-1.7-1.68v-6.2c0-.93.76-1.7 1.7-1.7s1.7.77 1.7 1.7v6.2c0 .93-.76 1.68-1.7 1.68zM1595.12 823.77h-6.25c-.93 0-1.7-.75-1.7-1.7 0-.92.77-1.68 1.7-1.68h6.23c.93 0 1.7.75 1.7 1.68 0 .94-.77 1.7-1.7 1.7zM1595.12 829.5h-6.25c-.93 0-1.7-.74-1.7-1.67 0-.94.77-1.7 1.7-1.7h6.23c.93 0 1.7.76 1.7 1.7 0 .93-.77 1.68-1.7 1.68zM1595.12 835.28h-6.25c-.93 0-1.7-.75-1.7-1.7 0-.92.77-1.67 1.7-1.67h6.23c.93 0 1.7.76 1.7 1.7 0 .93-.77 1.68-1.7 1.68zM1595.12 841.03h-6.25c-.93 0-1.7-.76-1.7-1.7 0-.92.77-1.68 1.7-1.68h6.23c.93 0 1.7.76 1.7 1.7 0 .92-.77 1.68-1.7 1.68zM1561.02 823.77h-6.23c-.94 0-1.7-.75-1.7-1.7 0-.92.76-1.68 1.7-1.68h6.22c.93 0 1.7.75 1.7 1.68 0 .94-.77 1.7-1.7 1.7zM1561.02 829.5h-6.23c-.94 0-1.7-.74-1.7-1.67 0-.94.76-1.7 1.7-1.7h6.22c.93 0 1.7.76 1.7 1.7 0 .93-.77 1.68-1.7 1.68zM1561.02 835.28h-6.23c-.94 0-1.7-.75-1.7-1.7 0-.92.76-1.67 1.7-1.67h6.22c.93 0 1.7.76 1.7 1.7 0 .93-.77 1.68-1.7 1.68zM1561.02 841.03h-6.23c-.94 0-1.7-.76-1.7-1.7 0-.92.76-1.68 1.7-1.68h6.22c.93 0 1.7.76 1.7 1.7 0 .92-.77 1.68-1.7 1.68z" fill="#fff"/><path d="M1569.38 825.13h11.22v11.17h-11.22v-11.17z" fill="#fbbf93"/><path d="M1580.62 837.43h-11.33c-.64 0-1.14-.5-1.14-1.13v-11.27c0-.62.5-1.12 1.13-1.12h11.32c.62 0 1.12.5 1.12 1.13v11.27c0 .63-.5 1.13-1.12 1.13zm-10.1-2.26h9.05v-9h-9.1z" fill="#fff"/><use xlink:href="#i" transform="matrix(1,0,0,1,1515,867) translate(37.19135802469136 17.77777777777778)"/><use xlink:href="#j" transform="matrix(1,0,0,1,1515,867) translate(5.1234567901234485 44.44444444444444)"/><use xlink:href="#k" transform="matrix(1,0,0,1,1515,867) translate(102.53086419753086 44.44444444444444)"/><path d="M1517.5 965.6h120v61.4h-120v-61.4z" fill="#9d5025"/><path d="M1517.5 960h120v61.4h-120V960z" fill="#f58536"/><path d="M1543.42 963.67h5.65v54.08h-5.65v-54.08zM1522.6 963.67h5.64v54.08h-5.65v-54.08zM1533 963.67h5.66v54.08H1533v-54.08zM1605.9 963.67h5.66v54.08h-5.66v-54.08zM1616.32 963.67h5.65v54.08h-5.65v-54.08zM1626.74 963.67h5.65v54.08h-5.66v-54.08z" fill="#fbbf93"/><path d="M1524.06 965.13h4.2v52.62h-4.2v-52.62zM1534.48 965.13h4.2v52.62h-4.2v-52.62zM1544.9 965.13h4.18v52.62h-4.18v-52.62zM1607.38 965.13h4.2v52.62h-4.2v-52.62zM1617.8 965.13h4.18v52.62h-4.18v-52.62zM1628.2 965.13h4.2v52.62h-4.2v-52.62z" fill="#fff"/><path d="M1569.28 976.9h16.45c5.67 0 5.67 0 5.67 5.64v16.37c0 5.65 0 5.65-5.67 5.65h-16.45c-5.66 0-5.66 0-5.66-5.64v-16.36c0-5.64 0-5.64 5.66-5.64z" fill="#d16929"/><path d="M1585.7 1006.24h-16.43c-4.05 0-7.36-3.3-7.36-7.33v-16.37c0-4.03 3.32-7.32 7.37-7.32h16.46c4.05 0 7.36 3.3 7.36 7.33v16.38c0 4.05-3.32 7.34-7.37 7.34h-.03zm-16.43-27.65c-2.18 0-3.96 1.76-3.96 3.93v16.38c0 2.2 1.8 3.95 3.97 3.95h16.46c2.18 0 3.96-1.76 3.96-3.94v-16.37c0-2.17-1.8-3.94-3.97-3.94z" fill="#fff"/><path d="M1568.73 978.6c-.93 0-1.7-.77-1.7-1.7v-6.2c0-.93.77-1.7 1.7-1.7.94 0 1.7.77 1.7 1.7v6.2c0 .93-.76 1.7-1.7 1.7zM1574.53 978.6c-.94 0-1.7-.77-1.7-1.7v-6.2c0-.93.76-1.7 1.7-1.7s1.7.77 1.7 1.7v6.2c0 .93-.76 1.7-1.7 1.7zM1580.3 978.6c-.94 0-1.7-.77-1.7-1.7v-6.2c0-.93.76-1.7 1.7-1.7s1.7.77 1.7 1.7v6.2c0 .93-.76 1.7-1.7 1.7zM1586.1 978.6c-.94 0-1.7-.77-1.7-1.7v-6.2c0-.93.76-1.7 1.7-1.7s1.7.77 1.7 1.7v6.2c0 .93-.76 1.7-1.7 1.7zM1568.73 1012.43c-.93 0-1.7-.75-1.7-1.68v-6.2c0-.93.77-1.7 1.7-1.7.94 0 1.7.77 1.7 1.7v6.2c0 .93-.76 1.68-1.7 1.68zM1574.53 1012.43c-.94 0-1.7-.75-1.7-1.68v-6.2c0-.93.76-1.7 1.7-1.7s1.7.77 1.7 1.7v6.2c0 .93-.76 1.68-1.7 1.68zM1580.3 1012.43c-.94 0-1.7-.75-1.7-1.68v-6.2c0-.93.76-1.7 1.7-1.7s1.7.77 1.7 1.7v6.2c0 .93-.76 1.68-1.7 1.68zM1586.1 1012.43c-.94 0-1.7-.75-1.7-1.68v-6.2c0-.93.76-1.7 1.7-1.7s1.7.77 1.7 1.7v6.2c0 .93-.76 1.68-1.7 1.68zM1597.62 983.77h-6.25c-.93 0-1.7-.75-1.7-1.7 0-.92.77-1.68 1.7-1.68h6.23c.93 0 1.7.75 1.7 1.68 0 .94-.77 1.7-1.7 1.7zM1597.62 989.5h-6.25c-.93 0-1.7-.74-1.7-1.67 0-.94.77-1.7 1.7-1.7h6.23c.93 0 1.7.76 1.7 1.7 0 .93-.77 1.68-1.7 1.68zM1597.62 995.28h-6.25c-.93 0-1.7-.75-1.7-1.7 0-.92.77-1.67 1.7-1.67h6.23c.93 0 1.7.76 1.7 1.7 0 .93-.77 1.68-1.7 1.68zM1597.62 1001.03h-6.25c-.93 0-1.7-.76-1.7-1.7 0-.92.77-1.68 1.7-1.68h6.23c.93 0 1.7.76 1.7 1.7 0 .92-.77 1.68-1.7 1.68zM1563.52 983.77h-6.23c-.94 0-1.7-.75-1.7-1.7 0-.92.76-1.68 1.7-1.68h6.22c.93 0 1.7.75 1.7 1.68 0 .94-.77 1.7-1.7 1.7zM1563.52 989.5h-6.23c-.94 0-1.7-.74-1.7-1.67 0-.94.76-1.7 1.7-1.7h6.22c.93 0 1.7.76 1.7 1.7 0 .93-.77 1.68-1.7 1.68zM1563.52 995.28h-6.23c-.94 0-1.7-.75-1.7-1.7 0-.92.76-1.67 1.7-1.67h6.22c.93 0 1.7.76 1.7 1.7 0 .93-.77 1.68-1.7 1.68zM1563.52 1001.03h-6.23c-.94 0-1.7-.76-1.7-1.7 0-.92.76-1.68 1.7-1.68h6.22c.93 0 1.7.76 1.7 1.7 0 .92-.77 1.68-1.7 1.68z" fill="#fff"/><path d="M1571.88 985.13h11.22v11.17h-11.22v-11.17z" fill="#fbbf93"/><path d="M1583.12 997.43h-11.33c-.64 0-1.14-.5-1.14-1.13v-11.27c0-.62.5-1.12 1.13-1.12h11.32c.62 0 1.12.5 1.12 1.13v11.27c0 .63-.5 1.13-1.12 1.13zm-10.1-2.26h9.05v-9h-9.1z" fill="#fff"/><use xlink:href="#i" transform="matrix(1,0,0,1,1517.5,1027) translate(37.19135802469136 17.77777777777778)"/><use xlink:href="#j" transform="matrix(1,0,0,1,1517.5,1027) translate(5.1234567901234485 44.44444444444444)"/><use xlink:href="#k" transform="matrix(1,0,0,1,1517.5,1027) translate(102.53086419753086 44.44444444444444)"/><path d="M1181 540h112.25c3.3 0 6-2.7 6-6V286c0-3.3 2.7-6 6-6H1400" stroke="#5e5e5e" stroke-width="2" fill="none"/><path d="M1181.03 541H1180v-2h1.03" fill="#5e5e5e"/><path d="M1415.26 280l-14.26 4.64v-9.28z" stroke="#5e5e5e" stroke-width="2" fill="#5e5e5e"/><path d="M1181 540h112.25c3.3 0 6 2.7 6 6v348c0 3.3 2.7 6 6 6H1400" stroke="#5e5e5e" stroke-width="2" fill="none"/><path d="M1181.03 541H1180v-2h1.03" fill="#5e5e5e"/><path d="M1415.26 900l-14.26 4.64v-9.28z" stroke="#5e5e5e" stroke-width="2" fill="#5e5e5e"/><path d="M320 86c0-3.3 2.7-6 6-6h108c3.3 0 6 2.7 6 6v108c0 3.3-2.7 6-6 6H326c-3.3 0-6-2.7-6-6z" stroke="#5e5e5e" stroke-width="3" fill="#fff"/><use xlink:href="#l" transform="matrix(1,0,0,1,325,85) translate(6.6481481481481595 39.94444444444444)"/><use xlink:href="#m" transform="matrix(1,0,0,1,325,85) translate(41.17283950617284 39.94444444444444)"/><use xlink:href="#n" transform="matrix(1,0,0,1,325,85) translate(74.87654320987653 39.94444444444444)"/><use xlink:href="#o" transform="matrix(1,0,0,1,325,85) translate(7.555555555555557 58.61111111111111)"/><use xlink:href="#p" transform="matrix(1,0,0,1,325,85) translate(31.666666666666664 58.61111111111111)"/><use xlink:href="#q" transform="matrix(1,0,0,1,325,85) translate(38.19135802469136 77.27777777777777)"/><path d="M1502 481.5" stroke="#5e5e5e" stroke-width="2" fill="none"/><path fill="#5e5e5e"/><path d="M1498.76 481.5l-14.26 4.64v-9.28z" stroke="#5e5e5e" stroke-width="2" fill="#5e5e5e"/><path d="M1450 521c0-3.3 2.7-6 6-6h253c3.3 0 6 2.7 6 6v33c0 3.3-2.7 6-6 6h-253c-3.3 0-6-2.7-6-6z" stroke="#5e5e5e" stroke-width="3" fill="#fff"/><use xlink:href="#r" transform="matrix(1,0,0,1,1460,519.5) translate(0 22.444444444444443)"/><use xlink:href="#s" transform="matrix(1,0,0,1,1460,519.5) translate(61.666666666666664 22.444444444444443)"/><path d="M1475 1131c0-3.3 2.7-6 6-6h218c3.3 0 6 2.7 6 6v28c0 3.3-2.7 6-6 6h-218c-3.3 0-6-2.7-6-6z" stroke="#5e5e5e" stroke-width="3" fill="#fff"/><g><use xlink:href="#r" transform="matrix(1,0,0,1,1485,1129) translate(0 20.444444444444443)"/><use xlink:href="#t" transform="matrix(1,0,0,1,1485,1129) translate(61.666666666666664 20.444444444444443)"/></g><path d="M1010 646c0-3.3 2.7-6 6-6h233c3.3 0 6 2.7 6 6v88c0 3.3-2.7 6-6 6h-233c-3.3 0-6-2.7-6-6z" stroke="#5e5e5e" stroke-width="3" fill="#fff"/><g><use xlink:href="#u" transform="matrix(1,0,0,1,1020,650) translate(0 17.77777777777778)"/><use xlink:href="#v" transform="matrix(1,0,0,1,1020,650) translate(77.71604938271605 17.77777777777778)"/><use xlink:href="#w" transform="matrix(1,0,0,1,1020,650) translate(0 44.44444444444444)"/><use xlink:href="#x" transform="matrix(1,0,0,1,1020,650) translate(95.98765432098764 44.44444444444444)"/><use xlink:href="#y" transform="matrix(1,0,0,1,1020,650) translate(156.48148148148147 44.44444444444444)"/><use xlink:href="#z" transform="matrix(1,0,0,1,1020,650) translate(188.5185185185185 44.44444444444444)"/><use xlink:href="#A" transform="matrix(1,0,0,1,1020,650) translate(0 71.11111111111111)"/><use xlink:href="#B" transform="matrix(1,0,0,1,1020,650) translate(40.74074074074074 71.11111111111111)"/><use xlink:href="#C" transform="matrix(1,0,0,1,1020,650) translate(66.60493827160494 71.11111111111111)"/><use xlink:href="#D" transform="matrix(1,0,0,1,1020,650) translate(108.58024691358025 71.11111111111111)"/></g><path d="M113.35 696c0-3.3 2.7-6 6-6h278c3.3 0 6 2.7 6 6v103c0 3.3-2.7 6-6 6h-278c-3.3 0-6-2.7-6-6z" stroke="#5e5e5e" stroke-width="3" fill="#fff"/><g><use xlink:href="#E" transform="matrix(1,0,0,1,123.35000000000002,701.5) translate(0 23.77777777777778)"/><use xlink:href="#F" transform="matrix(1,0,0,1,123.35000000000002,701.5) translate(98.7037037037037 23.77777777777778)"/><use xlink:href="#G" transform="matrix(1,0,0,1,123.35000000000002,701.5) translate(162.77777777777777 23.77777777777778)"/><use xlink:href="#H" transform="matrix(1,0,0,1,123.35000000000002,701.5) translate(200.98765432098764 23.77777777777778)"/><use xlink:href="#I" transform="matrix(1,0,0,1,123.35000000000002,701.5) translate(0 50.44444444444445)"/><use xlink:href="#J" transform="matrix(1,0,0,1,123.35000000000002,701.5) translate(54.197530864197525 50.44444444444445)"/><use xlink:href="#K" transform="matrix(1,0,0,1,123.35000000000002,701.5) translate(120.86419753086417 50.44444444444445)"/><use xlink:href="#L" transform="matrix(1,0,0,1,123.35000000000002,701.5) translate(151.72839506172838 50.44444444444445)"/><use xlink:href="#M" transform="matrix(1,0,0,1,123.35000000000002,701.5) translate(0 77.11111111111111)"/><use xlink:href="#N" transform="matrix(1,0,0,1,123.35000000000002,701.5) translate(78.9506172839506 77.11111111111111)"/></g><path d="M1120 479V358c0-3.3-2.7-6-6-6H900" stroke="#5e5e5e" stroke-width="2" fill="none"/><path d="M1121 480h-2v-1.03h2" fill="#5e5e5e"/><path d="M884.74 352l14.26-4.64v9.28z" stroke="#5e5e5e" stroke-width="2" fill="#5e5e5e"/><path d="M970 236c0-3.3 2.7-6 6-6h238c3.3 0 6 2.7 6 6v88c0 3.3-2.7 6-6 6H976c-3.3 0-6-2.7-6-6z" stroke="#5e5e5e" stroke-width="3" fill="#fff"/><g><use xlink:href="#O" transform="matrix(1,0,0,1,980,240) translate(0 17.77777777777778)"/><use xlink:href="#I" transform="matrix(1,0,0,1,980,240) translate(88.76543209876543 17.77777777777778)"/><use xlink:href="#P" transform="matrix(1,0,0,1,980,240) translate(142.96296296296296 17.77777777777778)"/><use xlink:href="#Q" transform="matrix(1,0,0,1,980,240) translate(0 44.44444444444444)"/><use xlink:href="#R" transform="matrix(1,0,0,1,980,240) translate(114.69135802469135 44.44444444444444)"/><use xlink:href="#S" transform="matrix(1,0,0,1,980,240) translate(0 71.11111111111111)"/><use xlink:href="#T" transform="matrix(1,0,0,1,980,240) translate(118.39506172839508 71.11111111111111)"/></g><path d="M875 325h55v55h-55z" fill="none"/><path d="M913 360.37l-6.1-6.1-6.05 6.1-2.1-2.15 6.06-6.05-6.04-6.05 2.1-2.1 6.04 6.06 6.1-6.05 2.1 2.1-6.06 6.04 6.06 6.05-2.1 2.14zm-34.64-7.76l11.93 11.9h36.35v-24H890.3l-11.94 12.1z" fill="#403f3f"/><path d="M1181 540h38.5" stroke="#5e5e5e" stroke-width="2" fill="none"/><path d="M1181.03 541H1180v-2h1.03" fill="#5e5e5e"/><path d="M1234.76 540l-14.26 4.64v-9.28z" stroke="#5e5e5e" stroke-width="2" fill="#5e5e5e"/><path d="M555 1041c0-3.3 2.7-6 6-6h273c3.3 0 6 2.7 6 6v83c0 3.3-2.7 6-6 6H561c-3.3 0-6-2.7-6-6z" stroke="#5e5e5e" stroke-width="3" fill="#fff"/><g><use xlink:href="#U" transform="matrix(1,0,0,1,565,1044.5) translate(0 29.111111111111114)"/><use xlink:href="#V" transform="matrix(1,0,0,1,565,1044.5) translate(51.72839506172839 29.111111111111114)"/><use xlink:href="#W" transform="matrix(1,0,0,1,565,1044.5) translate(120.679012345679 29.111111111111114)"/><use xlink:href="#X" transform="matrix(1,0,0,1,565,1044.5) translate(0 55.77777777777778)"/><use xlink:href="#Y" transform="matrix(1,0,0,1,565,1044.5) translate(78.88888888888889 55.77777777777778)"/><use xlink:href="#Z" transform="matrix(1,0,0,1,565,1044.5) translate(103.58024691358024 55.77777777777778)"/><use xlink:href="#aa" transform="matrix(1,0,0,1,565,1044.5) translate(199.8148148148148 55.77777777777778)"/></g><defs><path d="M233-177c-1 41-23 64-60 70L243 0h-38l-65-103H63V0H30v-248c88 3 205-21 203 71zM63-129c60-2 137 13 137-47 0-61-80-42-137-45v92" id="ab"/><path d="M100-194c63 0 86 42 84 106H49c0 40 14 67 53 68 26 1 43-12 49-29l28 8c-11 28-37 45-77 45C44 4 14-33 15-96c1-61 26-98 85-98zm52 81c6-60-76-77-97-28-3 7-6 17-6 28h103" id="ac"/><path d="M135-143c-3-34-86-38-87 0 15 53 115 12 119 90S17 21 10-45l28-5c4 36 97 45 98 0-10-56-113-15-118-90-4-57 82-63 122-42 12 7 21 19 24 35" id="ad"/><path d="M100-194c62-1 85 37 85 99 1 63-27 99-86 99S16-35 15-95c0-66 28-99 85-99zM99-20c44 1 53-31 53-75 0-43-8-75-51-75s-53 32-53 75 10 74 51 75" id="ae"/><path d="M84 4C-5 8 30-112 23-190h32v120c0 31 7 50 39 49 72-2 45-101 50-169h31l1 190h-30c-1-10 1-25-2-33-11 22-28 36-60 37" id="af"/><path d="M114-163C36-179 61-72 57 0H25l-1-190h30c1 12-1 29 2 39 6-27 23-49 58-41v29" id="ag"/><path d="M96-169c-40 0-48 33-48 73s9 75 48 75c24 0 41-14 43-38l32 2c-6 37-31 61-74 61-59 0-76-41-82-99-10-93 101-131 147-64 4 7 5 14 7 22l-32 3c-4-21-16-35-41-35" id="ah"/><g id="a"><use transform="matrix(0.05,0,0,0.05,0,0)" xlink:href="#ab"/><use transform="matrix(0.05,0,0,0.05,12.950000000000001,0)" xlink:href="#ac"/><use transform="matrix(0.05,0,0,0.05,22.950000000000003,0)" xlink:href="#ad"/><use transform="matrix(0.05,0,0,0.05,31.950000000000003,0)" xlink:href="#ae"/><use transform="matrix(0.05,0,0,0.05,41.95,0)" xlink:href="#af"/><use transform="matrix(0.05,0,0,0.05,51.95,0)" xlink:href="#ag"/><use transform="matrix(0.05,0,0,0.05,57.900000000000006,0)" xlink:href="#ah"/><use transform="matrix(0.05,0,0,0.05,66.9,0)" xlink:href="#ac"/></g><path d="M143 4C61 4 22-44 18-125c-5-107 100-154 193-111 17 8 29 25 37 43l-32 9c-13-25-37-40-76-40-61 0-88 39-88 99 0 61 29 100 91 101 35 0 62-11 79-27v-45h-74v-28h105v86C228-13 192 4 143 4" id="ai"/><path d="M115-194c55 1 70 41 70 98S169 2 115 4C84 4 66-9 55-30l1 105H24l-1-265h31l2 30c10-21 28-34 59-34zm-8 174c40 0 45-34 45-75s-6-73-45-74c-42 0-51 32-51 76 0 43 10 73 51 73" id="aj"/><g id="b"><use transform="matrix(0.05,0,0,0.05,0,0)" xlink:href="#ai"/><use transform="matrix(0.05,0,0,0.05,14,0)" xlink:href="#ag"/><use transform="matrix(0.05,0,0,0.05,19.95,0)" xlink:href="#ae"/><use transform="matrix(0.05,0,0,0.05,29.950000000000003,0)" xlink:href="#af"/><use transform="matrix(0.05,0,0,0.05,39.95,0)" xlink:href="#aj"/></g><path fill="#333" d="M205 0l-28-72H64L36 0H1l101-248h38L239 0h-34zm-38-99l-47-123c-12 45-31 82-46 123h93" id="ak"/><path fill="#333" d="M266 0h-40l-56-210L115 0H75L2-248h35L96-30l15-64 43-154h32l59 218 59-218h35" id="al"/><path fill="#333" d="M185-189c-5-48-123-54-124 2 14 75 158 14 163 119 3 78-121 87-175 55-17-10-28-26-33-46l33-7c5 56 141 63 141-1 0-78-155-14-162-118-5-82 145-84 179-34 5 7 8 16 11 25" id="am"/><g id="c"><use transform="matrix(0.06172839506172839,0,0,0.06172839506172839,0,0)" xlink:href="#ak"/><use transform="matrix(0.06172839506172839,0,0,0.06172839506172839,14.012345679012345,0)" xlink:href="#al"/><use transform="matrix(0.06172839506172839,0,0,0.06172839506172839,34.938271604938265,0)" xlink:href="#am"/></g><path fill="#333" d="M30 0v-248h33v221h125V0H30" id="an"/><path fill="#333" d="M141-36C126-15 110 5 73 4 37 3 15-17 15-53c-1-64 63-63 125-63 3-35-9-54-41-54-24 1-41 7-42 31l-33-3c5-37 33-52 76-52 45 0 72 20 72 64v82c-1 20 7 32 28 27v20c-31 9-61-2-59-35zM48-53c0 20 12 33 32 33 41-3 63-29 60-74-43 2-92-5-92 41" id="ao"/><path fill="#333" d="M210-169c-67 3-38 105-44 169h-31v-121c0-29-5-50-35-48C34-165 62-65 56 0H25l-1-190h30c1 10-1 24 2 32 10-44 99-50 107 0 11-21 27-35 58-36 85-2 47 119 55 194h-31v-121c0-29-5-49-35-48" id="ap"/><path fill="#333" d="M115-194c53 0 69 39 70 98 0 66-23 100-70 100C84 3 66-7 56-30L54 0H23l1-261h32v101c10-23 28-34 59-34zm-8 174c40 0 45-34 45-75 0-40-5-75-45-74-42 0-51 32-51 76 0 43 10 73 51 73" id="aq"/><path fill="#333" d="M85-194c31 0 48 13 60 33l-1-100h32l1 261h-30c-2-10 0-23-3-31C134-8 116 4 85 4 32 4 16-35 15-94c0-66 23-100 70-100zm9 24c-40 0-46 34-46 75 0 40 6 74 45 74 42 0 51-32 51-76 0-42-9-74-50-73" id="ar"/><g id="d"><use transform="matrix(0.06172839506172839,0,0,0.06172839506172839,0,0)" xlink:href="#an"/><use transform="matrix(0.06172839506172839,0,0,0.06172839506172839,12.345679012345679,0)" xlink:href="#ao"/><use transform="matrix(0.06172839506172839,0,0,0.06172839506172839,24.691358024691358,0)" xlink:href="#ap"/><use transform="matrix(0.06172839506172839,0,0,0.06172839506172839,43.148148148148145,0)" xlink:href="#aq"/><use transform="matrix(0.06172839506172839,0,0,0.06172839506172839,55.49382716049382,0)" xlink:href="#ar"/><use transform="matrix(0.06172839506172839,0,0,0.06172839506172839,67.8395061728395,0)" xlink:href="#ao"/></g><path fill="#333" d="M160-131c35 5 61 23 61 61C221 17 115-2 30 0v-248c76 3 177-17 177 60 0 33-19 50-47 57zm-97-11c50-1 110 9 110-42 0-47-63-36-110-37v79zm0 115c55-2 124 14 124-45 0-56-70-42-124-44v89" id="as"/><path fill="#333" d="M84 4C-5 8 30-112 23-190h32v120c0 31 7 50 39 49 72-2 45-101 50-169h31l1 190h-30c-1-10 1-25-2-33-11 22-28 36-60 37" id="at"/><path fill="#333" d="M96-169c-40 0-48 33-48 73s9 75 48 75c24 0 41-14 43-38l32 2c-6 37-31 61-74 61-59 0-76-41-82-99-10-93 101-131 147-64 4 7 5 14 7 22l-32 3c-4-21-16-35-41-35" id="au"/><path fill="#333" d="M143 0L79-87 56-68V0H24v-261h32v163l83-92h37l-77 82L181 0h-38" id="av"/><path fill="#333" d="M100-194c63 0 86 42 84 106H49c0 40 14 67 53 68 26 1 43-12 49-29l28 8c-11 28-37 45-77 45C44 4 14-33 15-96c1-61 26-98 85-98zm52 81c6-60-76-77-97-28-3 7-6 17-6 28h103" id="aw"/><path fill="#333" d="M59-47c-2 24 18 29 38 22v24C64 9 27 4 27-40v-127H5v-23h24l9-43h21v43h35v23H59v120" id="ax"/><g id="e"><use transform="matrix(0.06172839506172839,0,0,0.06172839506172839,0,0)" xlink:href="#as"/><use transform="matrix(0.06172839506172839,0,0,0.06172839506172839,14.814814814814813,0)" xlink:href="#at"/><use transform="matrix(0.06172839506172839,0,0,0.06172839506172839,27.160493827160494,0)" xlink:href="#au"/><use transform="matrix(0.06172839506172839,0,0,0.06172839506172839,38.27160493827161,0)" xlink:href="#av"/><use transform="matrix(0.06172839506172839,0,0,0.06172839506172839,49.38271604938272,0)" xlink:href="#aw"/><use transform="matrix(0.06172839506172839,0,0,0.06172839506172839,61.7283950617284,0)" xlink:href="#ax"/></g><path fill="#333" d="M108 0H70L1-190h34L89-25l56-165h34" id="ay"/><path fill="#333" d="M117-194c89-4 53 116 60 194h-32v-121c0-31-8-49-39-48C34-167 62-67 57 0H25l-1-190h30c1 10-1 24 2 32 11-22 29-35 61-36" id="az"/><g id="f"><use transform="matrix(0.06172839506172839,0,0,0.06172839506172839,0,0)" xlink:href="#aw"/><use transform="matrix(0.06172839506172839,0,0,0.06172839506172839,12.345679012345679,0)" xlink:href="#ay"/><use transform="matrix(0.06172839506172839,0,0,0.06172839506172839,23.45679012345679,0)" xlink:href="#aw"/><use transform="matrix(0.06172839506172839,0,0,0.06172839506172839,35.80246913580247,0)" xlink:href="#az"/><use transform="matrix(0.06172839506172839,0,0,0.06172839506172839,48.148148148148145,0)" xlink:href="#ax"/></g><path fill="#333" d="M87 75C49 33 22-17 22-94c0-76 28-126 65-167h31c-38 41-64 92-64 168S80 34 118 75H87" id="aA"/><path fill="#333" d="M24-231v-30h32v30H24zM24 0v-190h32V0H24" id="aB"/><path fill="#333" d="M16-82v-28h88v28H16" id="aC"/><path fill="#333" d="M135-143c-3-34-86-38-87 0 15 53 115 12 119 90S17 21 10-45l28-5c4 36 97 45 98 0-10-56-113-15-118-90-4-57 82-63 122-42 12 7 21 19 24 35" id="aD"/><path fill="#333" d="M33-261c38 41 65 92 65 168S71 34 33 75H2C39 34 66-17 66-93S39-220 2-261h31" id="aE"/><g id="g"><use transform="matrix(0.06172839506172839,0,0,0.06172839506172839,0,0)" xlink:href="#aA"/><use transform="matrix(0.06172839506172839,0,0,0.06172839506172839,7.345679012345679,0)" xlink:href="#ax"/><use transform="matrix(0.06172839506172839,0,0,0.06172839506172839,13.518518518518519,0)" xlink:href="#aB"/><use transform="matrix(0.06172839506172839,0,0,0.06172839506172839,18.395061728395063,0)" xlink:href="#ap"/><use transform="matrix(0.06172839506172839,0,0,0.06172839506172839,36.85185185185185,0)" xlink:href="#aw"/><use transform="matrix(0.06172839506172839,0,0,0.06172839506172839,49.197530864197525,0)" xlink:href="#aC"/><use transform="matrix(0.06172839506172839,0,0,0.06172839506172839,56.5432098765432,0)" xlink:href="#aq"/><use transform="matrix(0.06172839506172839,0,0,0.06172839506172839,68.88888888888889,0)" xlink:href="#ao"/><use transform="matrix(0.06172839506172839,0,0,0.06172839506172839,81.23456790123457,0)" xlink:href="#aD"/><use transform="matrix(0.06172839506172839,0,0,0.06172839506172839,92.34567901234568,0)" xlink:href="#aw"/><use transform="matrix(0.06172839506172839,0,0,0.06172839506172839,104.69135802469137,0)" xlink:href="#ar"/><use transform="matrix(0.06172839506172839,0,0,0.06172839506172839,117.03703703703705,0)" xlink:href="#aE"/></g><g id="h"><use transform="matrix(0.06172839506172839,0,0,0.06172839506172839,0,0)" xlink:href="#aB"/><use transform="matrix(0.06172839506172839,0,0,0.06172839506172839,4.876543209876543,0)" xlink:href="#az"/><use transform="matrix(0.06172839506172839,0,0,0.06172839506172839,17.22222222222222,0)" xlink:href="#aD"/><use transform="matrix(0.06172839506172839,0,0,0.06172839506172839,28.333333333333332,0)" xlink:href="#ax"/><use transform="matrix(0.06172839506172839,0,0,0.06172839506172839,34.50617283950617,0)" xlink:href="#ao"/><use transform="matrix(0.06172839506172839,0,0,0.06172839506172839,46.85185185185185,0)" xlink:href="#az"/><use transform="matrix(0.06172839506172839,0,0,0.06172839506172839,59.197530864197525,0)" xlink:href="#au"/><use transform="matrix(0.06172839506172839,0,0,0.06172839506172839,70.30864197530863,0)" xlink:href="#aw"/><use transform="matrix(0.06172839506172839,0,0,0.06172839506172839,82.65432098765432,0)" xlink:href="#aD"/></g><path fill="#333" d="M30 0v-248h187v28H63v79h144v27H63v87h162V0H30" id="aF"/><path fill="#333" d="M212-179c-10-28-35-45-73-45-59 0-87 40-87 99 0 60 29 101 89 101 43 0 62-24 78-52l27 14C228-24 195 4 139 4 59 4 22-46 18-125c-6-104 99-153 187-111 19 9 31 26 39 46" id="aG"/><g id="i"><use transform="matrix(0.06172839506172839,0,0,0.06172839506172839,0,0)" xlink:href="#aF"/><use transform="matrix(0.06172839506172839,0,0,0.06172839506172839,14.814814814814813,0)" xlink:href="#aG"/><use transform="matrix(0.06172839506172839,0,0,0.06172839506172839,30.80246913580247,0)" xlink:href="#am"/></g><path fill="#333" d="M100-194c62-1 85 37 85 99 1 63-27 99-86 99S16-35 15-95c0-66 28-99 85-99zM99-20c44 1 53-31 53-75 0-43-8-75-51-75s-53 32-53 75 10 74 51 75" id="aH"/><path fill="#333" d="M114-163C36-179 61-72 57 0H25l-1-190h30c1 12-1 29 2 39 6-27 23-49 58-41v29" id="aI"/><g id="j"><use transform="matrix(0.06172839506172839,0,0,0.06172839506172839,0,0)" xlink:href="#au"/><use transform="matrix(0.06172839506172839,0,0,0.06172839506172839,11.11111111111111,0)" xlink:href="#aH"/><use transform="matrix(0.06172839506172839,0,0,0.06172839506172839,23.45679012345679,0)" xlink:href="#az"/><use transform="matrix(0.06172839506172839,0,0,0.06172839506172839,35.80246913580247,0)" xlink:href="#ax"/><use transform="matrix(0.06172839506172839,0,0,0.06172839506172839,41.97530864197531,0)" xlink:href="#ao"/><use transform="matrix(0.06172839506172839,0,0,0.06172839506172839,54.32098765432099,0)" xlink:href="#aB"/><use transform="matrix(0.06172839506172839,0,0,0.06172839506172839,59.19753086419753,0)" xlink:href="#az"/><use transform="matrix(0.06172839506172839,0,0,0.06172839506172839,71.54320987654322,0)" xlink:href="#aw"/><use transform="matrix(0.06172839506172839,0,0,0.06172839506172839,83.8888888888889,0)" xlink:href="#aI"/></g><path fill="#333" d="M101-251c82-7 93 87 43 132L82-64C71-53 59-42 53-27h129V0H18c2-99 128-94 128-182 0-28-16-43-45-43s-46 15-49 41l-32-3c6-41 34-60 81-64" id="aJ"/><use transform="matrix(0.06172839506172839,0,0,0.06172839506172839,0,0)" xlink:href="#aJ" id="k"/><g id="l"><use transform="matrix(0.04320987654320987,0,0,0.04320987654320987,0,0)" xlink:href="#at"/><use transform="matrix(0.04320987654320987,0,0,0.04320987654320987,8.641975308641973,0)" xlink:href="#aD"/><use transform="matrix(0.04320987654320987,0,0,0.04320987654320987,16.41975308641975,0)" xlink:href="#aw"/><use transform="matrix(0.04320987654320987,0,0,0.04320987654320987,25.061728395061724,0)" xlink:href="#aI"/></g><path fill="#333" d="M115-194c55 1 70 41 70 98S169 2 115 4C84 4 66-9 55-30l1 105H24l-1-265h31l2 30c10-21 28-34 59-34zm-8 174c40 0 45-34 45-75s-6-73-45-74c-42 0-51 32-51 76 0 43 10 73 51 73" id="aK"/><g id="m"><use transform="matrix(0.04320987654320987,0,0,0.04320987654320987,0,0)" xlink:href="#aK"/><use transform="matrix(0.04320987654320987,0,0,0.04320987654320987,8.641975308641973,0)" xlink:href="#at"/><use transform="matrix(0.04320987654320987,0,0,0.04320987654320987,17.283950617283946,0)" xlink:href="#ax"/><use transform="matrix(0.04320987654320987,0,0,0.04320987654320987,21.604938271604933,0)" xlink:href="#aD"/></g><path fill="#333" d="M24-231v-30h32v30H24zM-9 49c24 4 33-6 33-30v-209h32V24c2 40-23 58-65 49V49" id="aL"/><g id="n"><use transform="matrix(0.04320987654320987,0,0,0.04320987654320987,0,0)" xlink:href="#aL"/><use transform="matrix(0.04320987654320987,0,0,0.04320987654320987,3.4135802469135794,0)" xlink:href="#aD"/><use transform="matrix(0.04320987654320987,0,0,0.04320987654320987,11.191358024691356,0)" xlink:href="#aH"/><use transform="matrix(0.04320987654320987,0,0,0.04320987654320987,19.83333333333333,0)" xlink:href="#az"/></g><path fill="#333" d="M101-234c-31-9-42 10-38 44h38v23H63V0H32v-167H5v-23h27c-7-52 17-82 69-68v24" id="aM"/><path fill="#333" d="M24 0v-261h32V0H24" id="aN"/><g id="o"><use transform="matrix(0.04320987654320987,0,0,0.04320987654320987,0,0)" xlink:href="#aM"/><use transform="matrix(0.04320987654320987,0,0,0.04320987654320987,4.320987654320986,0)" xlink:href="#aB"/><use transform="matrix(0.04320987654320987,0,0,0.04320987654320987,7.734567901234566,0)" xlink:href="#aN"/><use transform="matrix(0.04320987654320987,0,0,0.04320987654320987,11.148148148148145,0)" xlink:href="#aw"/></g><path fill="#333" d="M177-190C167-65 218 103 67 71c-23-6-38-20-44-43l32-5c15 47 100 32 89-28v-30C133-14 115 1 83 1 29 1 15-40 15-95c0-56 16-97 71-98 29-1 48 16 59 35 1-10 0-23 2-32h30zM94-22c36 0 50-32 50-73 0-42-14-75-50-75-39 0-46 34-46 75s6 73 46 73" id="aO"/><g id="p"><use transform="matrix(0.04320987654320987,0,0,0.04320987654320987,0,0)" xlink:href="#au"/><use transform="matrix(0.04320987654320987,0,0,0.04320987654320987,7.777777777777776,0)" xlink:href="#aH"/><use transform="matrix(0.04320987654320987,0,0,0.04320987654320987,16.41975308641975,0)" xlink:href="#az"/><use transform="matrix(0.04320987654320987,0,0,0.04320987654320987,25.061728395061724,0)" xlink:href="#ax"/><use transform="matrix(0.04320987654320987,0,0,0.04320987654320987,29.382716049382708,0)" xlink:href="#ao"/><use transform="matrix(0.04320987654320987,0,0,0.04320987654320987,38.02469135802468,0)" xlink:href="#aB"/><use transform="matrix(0.04320987654320987,0,0,0.04320987654320987,41.438271604938265,0)" xlink:href="#az"/><use transform="matrix(0.04320987654320987,0,0,0.04320987654320987,50.08024691358023,0)" xlink:href="#aB"/><use transform="matrix(0.04320987654320987,0,0,0.04320987654320987,53.49382716049382,0)" xlink:href="#az"/><use transform="matrix(0.04320987654320987,0,0,0.04320987654320987,62.1358024691358,0)" xlink:href="#aO"/></g><g id="q"><use transform="matrix(0.04320987654320987,0,0,0.04320987654320987,0,0)" xlink:href="#aI"/><use transform="matrix(0.04320987654320987,0,0,0.04320987654320987,5.141975308641975,0)" xlink:href="#at"/><use transform="matrix(0.04320987654320987,0,0,0.04320987654320987,13.783950617283947,0)" xlink:href="#aN"/><use transform="matrix(0.04320987654320987,0,0,0.04320987654320987,17.197530864197528,0)" xlink:href="#aw"/><use transform="matrix(0.04320987654320987,0,0,0.04320987654320987,25.8395061728395,0)" xlink:href="#aD"/></g><g id="r"><use transform="matrix(0.06172839506172839,0,0,0.06172839506172839,0,0)" xlink:href="#am"/><use transform="matrix(0.06172839506172839,0,0,0.06172839506172839,14.814814814814813,0)" xlink:href="#au"/><use transform="matrix(0.06172839506172839,0,0,0.06172839506172839,25.925925925925924,0)" xlink:href="#ao"/><use transform="matrix(0.06172839506172839,0,0,0.06172839506172839,38.2716049382716,0)" xlink:href="#aN"/><use transform="matrix(0.06172839506172839,0,0,0.06172839506172839,43.148148148148145,0)" xlink:href="#aw"/></g><g id="s"><use transform="matrix(0.06172839506172839,0,0,0.06172839506172839,0,0)" xlink:href="#aB"/><use transform="matrix(0.06172839506172839,0,0,0.06172839506172839,4.876543209876543,0)" xlink:href="#az"/><use transform="matrix(0.06172839506172839,0,0,0.06172839506172839,17.22222222222222,0)" xlink:href="#aD"/><use transform="matrix(0.06172839506172839,0,0,0.06172839506172839,28.333333333333332,0)" xlink:href="#ax"/><use transform="matrix(0.06172839506172839,0,0,0.06172839506172839,34.50617283950617,0)" xlink:href="#ao"/><use transform="matrix(0.06172839506172839,0,0,0.06172839506172839,46.85185185185185,0)" xlink:href="#az"/><use transform="matrix(0.06172839506172839,0,0,0.06172839506172839,59.197530864197525,0)" xlink:href="#au"/><use transform="matrix(0.06172839506172839,0,0,0.06172839506172839,70.30864197530863,0)" xlink:href="#aw"/><use transform="matrix(0.06172839506172839,0,0,0.06172839506172839,82.65432098765432,0)" xlink:href="#aD"/></g><g id="t"><use transform="matrix(0.06172839506172839,0,0,0.06172839506172839,0,0)" xlink:href="#aM"/><use transform="matrix(0.06172839506172839,0,0,0.06172839506172839,6.172839506172839,0)" xlink:href="#ao"/><use transform="matrix(0.06172839506172839,0,0,0.06172839506172839,18.51851851851852,0)" xlink:href="#aI"/><use transform="matrix(0.06172839506172839,0,0,0.06172839506172839,25.864197530864196,0)" xlink:href="#aO"/><use transform="matrix(0.06172839506172839,0,0,0.06172839506172839,38.20987654320987,0)" xlink:href="#ao"/><use transform="matrix(0.06172839506172839,0,0,0.06172839506172839,50.55555555555555,0)" xlink:href="#ax"/><use transform="matrix(0.06172839506172839,0,0,0.06172839506172839,56.72839506172839,0)" xlink:href="#aw"/></g><path fill="#333" d="M232-93c-1 65-40 97-104 97C67 4 28-28 28-90v-158h33c8 89-33 224 67 224 102 0 64-133 71-224h33v155" id="aP"/><g id="u"><use transform="matrix(0.06172839506172839,0,0,0.06172839506172839,0,0)" xlink:href="#aP"/><use transform="matrix(0.06172839506172839,0,0,0.06172839506172839,15.987654320987653,0)" xlink:href="#aK"/><use transform="matrix(0.06172839506172839,0,0,0.06172839506172839,28.333333333333332,0)" xlink:href="#ar"/><use transform="matrix(0.06172839506172839,0,0,0.06172839506172839,40.67901234567901,0)" xlink:href="#ao"/><use transform="matrix(0.06172839506172839,0,0,0.06172839506172839,53.02469135802469,0)" xlink:href="#ax"/><use transform="matrix(0.06172839506172839,0,0,0.06172839506172839,59.19753086419753,0)" xlink:href="#aw"/></g><g id="v"><use transform="matrix(0.06172839506172839,0,0,0.06172839506172839,0,0)" xlink:href="#ao"/><use transform="matrix(0.06172839506172839,0,0,0.06172839506172839,12.345679012345679,0)" xlink:href="#at"/><use transform="matrix(0.06172839506172839,0,0,0.06172839506172839,24.691358024691358,0)" xlink:href="#ax"/><use transform="matrix(0.06172839506172839,0,0,0.06172839506172839,30.864197530864196,0)" xlink:href="#aH"/><use transform="matrix(0.06172839506172839,0,0,0.06172839506172839,43.20987654320987,0)" xlink:href="#aD"/><use transform="matrix(0.06172839506172839,0,0,0.06172839506172839,54.32098765432099,0)" xlink:href="#au"/><use transform="matrix(0.06172839506172839,0,0,0.06172839506172839,65.4320987654321,0)" xlink:href="#ao"/><use transform="matrix(0.06172839506172839,0,0,0.06172839506172839,77.77777777777779,0)" xlink:href="#aN"/><use transform="matrix(0.06172839506172839,0,0,0.06172839506172839,82.65432098765433,0)" xlink:href="#aB"/><use transform="matrix(0.06172839506172839,0,0,0.06172839506172839,87.53086419753087,0)" xlink:href="#az"/><use transform="matrix(0.06172839506172839,0,0,0.06172839506172839,99.87654320987656,0)" xlink:href="#aO"/></g><g id="w"><use transform="matrix(0.06172839506172839,0,0,0.06172839506172839,0,0)" xlink:href="#ap"/><use transform="matrix(0.06172839506172839,0,0,0.06172839506172839,18.456790123456788,0)" xlink:href="#aB"/><use transform="matrix(0.06172839506172839,0,0,0.06172839506172839,23.33333333333333,0)" xlink:href="#az"/><use transform="matrix(0.06172839506172839,0,0,0.06172839506172839,35.679012345679006,0)" xlink:href="#aB"/><use transform="matrix(0.06172839506172839,0,0,0.06172839506172839,40.55555555555555,0)" xlink:href="#ap"/><use transform="matrix(0.06172839506172839,0,0,0.06172839506172839,59.01234567901234,0)" xlink:href="#at"/><use transform="matrix(0.06172839506172839,0,0,0.06172839506172839,71.35802469135803,0)" xlink:href="#ap"/></g><g id="x"><use transform="matrix(0.06172839506172839,0,0,0.06172839506172839,0,0)" xlink:href="#au"/><use transform="matrix(0.06172839506172839,0,0,0.06172839506172839,11.11111111111111,0)" xlink:href="#aH"/><use transform="matrix(0.06172839506172839,0,0,0.06172839506172839,23.45679012345679,0)" xlink:href="#at"/><use transform="matrix(0.06172839506172839,0,0,0.06172839506172839,35.80246913580247,0)" xlink:href="#az"/><use transform="matrix(0.06172839506172839,0,0,0.06172839506172839,48.148148148148145,0)" xlink:href="#ax"/></g><g id="y"><use transform="matrix(0.06172839506172839,0,0,0.06172839506172839,0,0)" xlink:href="#aM"/><use transform="matrix(0.06172839506172839,0,0,0.06172839506172839,6.172839506172839,0)" xlink:href="#aH"/><use transform="matrix(0.06172839506172839,0,0,0.06172839506172839,18.51851851851852,0)" xlink:href="#aI"/></g><path fill="#333" d="M179-190L93 31C79 59 56 82 12 73V49c39 6 53-20 64-50L1-190h34L92-34l54-156h33" id="aQ"/><g id="z"><use transform="matrix(0.06172839506172839,0,0,0.06172839506172839,0,0)" xlink:href="#ao"/><use transform="matrix(0.06172839506172839,0,0,0.06172839506172839,12.345679012345679,0)" xlink:href="#az"/><use transform="matrix(0.06172839506172839,0,0,0.06172839506172839,24.691358024691358,0)" xlink:href="#aQ"/></g><g id="A"><use transform="matrix(0.06172839506172839,0,0,0.06172839506172839,0,0)" xlink:href="#aw"/><use transform="matrix(0.06172839506172839,0,0,0.06172839506172839,12.345679012345679,0)" xlink:href="#au"/><use transform="matrix(0.06172839506172839,0,0,0.06172839506172839,23.45679012345679,0)" xlink:href="#aD"/></g><g id="B"><use transform="matrix(0.06172839506172839,0,0,0.06172839506172839,0,0)" xlink:href="#aH"/><use transform="matrix(0.06172839506172839,0,0,0.06172839506172839,12.345679012345679,0)" xlink:href="#aI"/></g><g id="C"><use transform="matrix(0.06172839506172839,0,0,0.06172839506172839,0,0)" xlink:href="#aw"/><use transform="matrix(0.06172839506172839,0,0,0.06172839506172839,12.345679012345679,0)" xlink:href="#au"/><use transform="matrix(0.06172839506172839,0,0,0.06172839506172839,23.45679012345679,0)" xlink:href="#aJ"/></g><g id="D"><use transform="matrix(0.06172839506172839,0,0,0.06172839506172839,0,0)" xlink:href="#aD"/><use transform="matrix(0.06172839506172839,0,0,0.06172839506172839,11.11111111111111,0)" xlink:href="#aw"/><use transform="matrix(0.06172839506172839,0,0,0.06172839506172839,23.45679012345679,0)" xlink:href="#aI"/><use transform="matrix(0.06172839506172839,0,0,0.06172839506172839,30.80246913580247,0)" xlink:href="#ay"/><use transform="matrix(0.06172839506172839,0,0,0.06172839506172839,41.91358024691358,0)" xlink:href="#aB"/><use transform="matrix(0.06172839506172839,0,0,0.06172839506172839,46.79012345679013,0)" xlink:href="#au"/><use transform="matrix(0.06172839506172839,0,0,0.06172839506172839,57.90123456790124,0)" xlink:href="#aw"/></g><path fill="#333" d="M143 4C61 4 22-44 18-125c-5-107 100-154 193-111 17 8 29 25 37 43l-32 9c-13-25-37-40-76-40-61 0-88 39-88 99 0 61 29 100 91 101 35 0 62-11 79-27v-45h-74v-28h105v86C228-13 192 4 143 4" id="aR"/><g id="E"><use transform="matrix(0.06172839506172839,0,0,0.06172839506172839,0,0)" xlink:href="#aR"/><use transform="matrix(0.06172839506172839,0,0,0.06172839506172839,17.28395061728395,0)" xlink:href="#aw"/><use transform="matrix(0.06172839506172839,0,0,0.06172839506172839,29.629629629629626,0)" xlink:href="#az"/><use transform="matrix(0.06172839506172839,0,0,0.06172839506172839,41.9753086419753,0)" xlink:href="#aw"/><use transform="matrix(0.06172839506172839,0,0,0.06172839506172839,54.32098765432098,0)" xlink:href="#aI"/><use transform="matrix(0.06172839506172839,0,0,0.06172839506172839,61.66666666666666,0)" xlink:href="#ao"/><use transform="matrix(0.06172839506172839,0,0,0.06172839506172839,74.01234567901234,0)" xlink:href="#ax"/><use transform="matrix(0.06172839506172839,0,0,0.06172839506172839,80.18518518518518,0)" xlink:href="#aw"/></g><g id="F"><use transform="matrix(0.06172839506172839,0,0,0.06172839506172839,0,0)" xlink:href="#aD"/><use transform="matrix(0.06172839506172839,0,0,0.06172839506172839,11.11111111111111,0)" xlink:href="#aB"/><use transform="matrix(0.06172839506172839,0,0,0.06172839506172839,15.987654320987653,0)" xlink:href="#az"/><use transform="matrix(0.06172839506172839,0,0,0.06172839506172839,28.333333333333332,0)" xlink:href="#aO"/><use transform="matrix(0.06172839506172839,0,0,0.06172839506172839,40.67901234567901,0)" xlink:href="#aN"/><use transform="matrix(0.06172839506172839,0,0,0.06172839506172839,45.55555555555556,0)" xlink:href="#aw"/></g><g id="G"><use transform="matrix(0.06172839506172839,0,0,0.06172839506172839,0,0)" xlink:href="#aI"/><use transform="matrix(0.06172839506172839,0,0,0.06172839506172839,7.345679012345679,0)" xlink:href="#at"/><use transform="matrix(0.06172839506172839,0,0,0.06172839506172839,19.691358024691358,0)" xlink:href="#az"/></g><g id="H"><use transform="matrix(0.06172839506172839,0,0,0.06172839506172839,0,0)" xlink:href="#aw"/><use transform="matrix(0.06172839506172839,0,0,0.06172839506172839,12.345679012345679,0)" xlink:href="#ay"/><use transform="matrix(0.06172839506172839,0,0,0.06172839506172839,23.45679012345679,0)" xlink:href="#aw"/><use transform="matrix(0.06172839506172839,0,0,0.06172839506172839,35.80246913580247,0)" xlink:href="#az"/><use transform="matrix(0.06172839506172839,0,0,0.06172839506172839,48.148148148148145,0)" xlink:href="#ax"/></g><g id="I"><use transform="matrix(0.06172839506172839,0,0,0.06172839506172839,0,0)" xlink:href="#aI"/><use transform="matrix(0.06172839506172839,0,0,0.06172839506172839,7.345679012345679,0)" xlink:href="#at"/><use transform="matrix(0.06172839506172839,0,0,0.06172839506172839,19.691358024691358,0)" xlink:href="#aN"/><use transform="matrix(0.06172839506172839,0,0,0.06172839506172839,24.5679012345679,0)" xlink:href="#aw"/><use transform="matrix(0.06172839506172839,0,0,0.06172839506172839,36.913580246913575,0)" xlink:href="#aD"/></g><g id="J"><use transform="matrix(0.06172839506172839,0,0,0.06172839506172839,0,0)" xlink:href="#aq"/><use transform="matrix(0.06172839506172839,0,0,0.06172839506172839,12.345679012345679,0)" xlink:href="#ao"/><use transform="matrix(0.06172839506172839,0,0,0.06172839506172839,24.691358024691358,0)" xlink:href="#aD"/><use transform="matrix(0.06172839506172839,0,0,0.06172839506172839,35.80246913580247,0)" xlink:href="#aw"/><use transform="matrix(0.06172839506172839,0,0,0.06172839506172839,48.148148148148145,0)" xlink:href="#ar"/></g><g id="K"><use transform="matrix(0.06172839506172839,0,0,0.06172839506172839,0,0)" xlink:href="#aH"/><use transform="matrix(0.06172839506172839,0,0,0.06172839506172839,12.345679012345679,0)" xlink:href="#az"/></g><g id="L"><use transform="matrix(0.06172839506172839,0,0,0.06172839506172839,0,0)" xlink:href="#at"/><use transform="matrix(0.06172839506172839,0,0,0.06172839506172839,12.345679012345679,0)" xlink:href="#aD"/><use transform="matrix(0.06172839506172839,0,0,0.06172839506172839,23.45679012345679,0)" xlink:href="#aw"/><use transform="matrix(0.06172839506172839,0,0,0.06172839506172839,35.80246913580247,0)" xlink:href="#aI"/></g><g id="M"><use transform="matrix(0.06172839506172839,0,0,0.06172839506172839,0,0)" xlink:href="#ar"/><use transform="matrix(0.06172839506172839,0,0,0.06172839506172839,12.345679012345679,0)" xlink:href="#aw"/><use transform="matrix(0.06172839506172839,0,0,0.06172839506172839,24.691358024691358,0)" xlink:href="#aM"/><use transform="matrix(0.06172839506172839,0,0,0.06172839506172839,30.864197530864196,0)" xlink:href="#aB"/><use transform="matrix(0.06172839506172839,0,0,0.06172839506172839,35.74074074074074,0)" xlink:href="#az"/><use transform="matrix(0.06172839506172839,0,0,0.06172839506172839,48.08641975308642,0)" xlink:href="#aw"/><use transform="matrix(0.06172839506172839,0,0,0.06172839506172839,60.432098765432094,0)" xlink:href="#ar"/></g><path fill="#333" d="M106-169C34-169 62-67 57 0H25v-261h32l-1 103c12-21 28-36 61-36 89 0 53 116 60 194h-32v-121c2-32-8-49-39-48" id="aS"/><g id="N"><use transform="matrix(0.06172839506172839,0,0,0.06172839506172839,0,0)" xlink:href="#aD"/><use transform="matrix(0.06172839506172839,0,0,0.06172839506172839,11.11111111111111,0)" xlink:href="#aS"/><use transform="matrix(0.06172839506172839,0,0,0.06172839506172839,23.45679012345679,0)" xlink:href="#aw"/><use transform="matrix(0.06172839506172839,0,0,0.06172839506172839,35.80246913580247,0)" xlink:href="#ar"/><use transform="matrix(0.06172839506172839,0,0,0.06172839506172839,48.148148148148145,0)" xlink:href="#at"/><use transform="matrix(0.06172839506172839,0,0,0.06172839506172839,60.49382716049382,0)" xlink:href="#aN"/><use transform="matrix(0.06172839506172839,0,0,0.06172839506172839,65.37037037037037,0)" xlink:href="#aw"/></g><path fill="#333" d="M233-177c-1 41-23 64-60 70L243 0h-38l-65-103H63V0H30v-248c88 3 205-21 203 71zM63-129c60-2 137 13 137-47 0-61-80-42-137-45v92" id="aT"/><g id="O"><use transform="matrix(0.06172839506172839,0,0,0.06172839506172839,0,0)" xlink:href="#aT"/><use transform="matrix(0.06172839506172839,0,0,0.06172839506172839,15.987654320987653,0)" xlink:href="#aw"/><use transform="matrix(0.06172839506172839,0,0,0.06172839506172839,28.333333333333332,0)" xlink:href="#ap"/><use transform="matrix(0.06172839506172839,0,0,0.06172839506172839,46.79012345679012,0)" xlink:href="#aH"/><use transform="matrix(0.06172839506172839,0,0,0.06172839506172839,59.1358024691358,0)" xlink:href="#ay"/><use transform="matrix(0.06172839506172839,0,0,0.06172839506172839,70.24691358024691,0)" xlink:href="#aw"/></g><g id="P"><use transform="matrix(0.06172839506172839,0,0,0.06172839506172839,0,0)" xlink:href="#ao"/><use transform="matrix(0.06172839506172839,0,0,0.06172839506172839,12.345679012345679,0)" xlink:href="#aM"/><use transform="matrix(0.06172839506172839,0,0,0.06172839506172839,18.51851851851852,0)" xlink:href="#ax"/><use transform="matrix(0.06172839506172839,0,0,0.06172839506172839,24.691358024691358,0)" xlink:href="#aw"/><use transform="matrix(0.06172839506172839,0,0,0.06172839506172839,37.03703703703704,0)" xlink:href="#aI"/></g><g id="Q"><use transform="matrix(0.06172839506172839,0,0,0.06172839506172839,0,0)" xlink:href="#aD"/><use transform="matrix(0.06172839506172839,0,0,0.06172839506172839,11.11111111111111,0)" xlink:href="#at"/><use transform="matrix(0.06172839506172839,0,0,0.06172839506172839,23.45679012345679,0)" xlink:href="#au"/><use transform="matrix(0.06172839506172839,0,0,0.06172839506172839,34.5679012345679,0)" xlink:href="#aw"/><use transform="matrix(0.06172839506172839,0,0,0.06172839506172839,46.913580246913575,0)" xlink:href="#aD"/><use transform="matrix(0.06172839506172839,0,0,0.06172839506172839,58.02469135802468,0)" xlink:href="#aD"/><use transform="matrix(0.06172839506172839,0,0,0.06172839506172839,69.1358024691358,0)" xlink:href="#aM"/><use transform="matrix(0.06172839506172839,0,0,0.06172839506172839,75.30864197530863,0)" xlink:href="#at"/><use transform="matrix(0.06172839506172839,0,0,0.06172839506172839,87.65432098765432,0)" xlink:href="#aN"/><use transform="matrix(0.06172839506172839,0,0,0.06172839506172839,92.53086419753086,0)" xlink:href="#aN"/><use transform="matrix(0.06172839506172839,0,0,0.06172839506172839,97.4074074074074,0)" xlink:href="#aQ"/></g><g id="R"><use transform="matrix(0.06172839506172839,0,0,0.06172839506172839,0,0)" xlink:href="#at"/><use transform="matrix(0.06172839506172839,0,0,0.06172839506172839,12.345679012345679,0)" xlink:href="#aK"/><use transform="matrix(0.06172839506172839,0,0,0.06172839506172839,24.691358024691358,0)" xlink:href="#ar"/><use transform="matrix(0.06172839506172839,0,0,0.06172839506172839,37.03703703703704,0)" xlink:href="#ao"/><use transform="matrix(0.06172839506172839,0,0,0.06172839506172839,49.382716049382715,0)" xlink:href="#ax"/><use transform="matrix(0.06172839506172839,0,0,0.06172839506172839,55.55555555555556,0)" xlink:href="#aB"/><use transform="matrix(0.06172839506172839,0,0,0.06172839506172839,60.4320987654321,0)" xlink:href="#az"/><use transform="matrix(0.06172839506172839,0,0,0.06172839506172839,72.77777777777779,0)" xlink:href="#aO"/></g><g id="S"><use transform="matrix(0.06172839506172839,0,0,0.06172839506172839,0,0)" xlink:href="#ao"/><use transform="matrix(0.06172839506172839,0,0,0.06172839506172839,12.345679012345679,0)" xlink:href="#at"/><use transform="matrix(0.06172839506172839,0,0,0.06172839506172839,24.691358024691358,0)" xlink:href="#ax"/><use transform="matrix(0.06172839506172839,0,0,0.06172839506172839,30.864197530864196,0)" xlink:href="#aH"/><use transform="matrix(0.06172839506172839,0,0,0.06172839506172839,43.20987654320987,0)" xlink:href="#aD"/><use transform="matrix(0.06172839506172839,0,0,0.06172839506172839,54.32098765432099,0)" xlink:href="#au"/><use transform="matrix(0.06172839506172839,0,0,0.06172839506172839,65.4320987654321,0)" xlink:href="#ao"/><use transform="matrix(0.06172839506172839,0,0,0.06172839506172839,77.77777777777779,0)" xlink:href="#aN"/><use transform="matrix(0.06172839506172839,0,0,0.06172839506172839,82.65432098765433,0)" xlink:href="#aB"/><use transform="matrix(0.06172839506172839,0,0,0.06172839506172839,87.53086419753087,0)" xlink:href="#az"/><use transform="matrix(0.06172839506172839,0,0,0.06172839506172839,99.87654320987656,0)" xlink:href="#aO"/></g><g id="T"><use transform="matrix(0.06172839506172839,0,0,0.06172839506172839,0,0)" xlink:href="#aO"/><use transform="matrix(0.06172839506172839,0,0,0.06172839506172839,12.345679012345679,0)" xlink:href="#aI"/><use transform="matrix(0.06172839506172839,0,0,0.06172839506172839,19.691358024691358,0)" xlink:href="#aH"/><use transform="matrix(0.06172839506172839,0,0,0.06172839506172839,32.03703703703704,0)" xlink:href="#at"/><use transform="matrix(0.06172839506172839,0,0,0.06172839506172839,44.382716049382715,0)" xlink:href="#aK"/></g><g id="U"><use transform="matrix(0.06172839506172839,0,0,0.06172839506172839,0,0)" xlink:href="#aT"/><use transform="matrix(0.06172839506172839,0,0,0.06172839506172839,15.987654320987653,0)" xlink:href="#at"/><use transform="matrix(0.06172839506172839,0,0,0.06172839506172839,28.333333333333332,0)" xlink:href="#aN"/><use transform="matrix(0.06172839506172839,0,0,0.06172839506172839,33.20987654320987,0)" xlink:href="#aw"/></g><g id="V"><use transform="matrix(0.06172839506172839,0,0,0.06172839506172839,0,0)" xlink:href="#ax"/><use transform="matrix(0.06172839506172839,0,0,0.06172839506172839,6.172839506172839,0)" xlink:href="#aI"/><use transform="matrix(0.06172839506172839,0,0,0.06172839506172839,13.518518518518519,0)" xlink:href="#aB"/><use transform="matrix(0.06172839506172839,0,0,0.06172839506172839,18.395061728395063,0)" xlink:href="#aO"/><use transform="matrix(0.06172839506172839,0,0,0.06172839506172839,30.74074074074074,0)" xlink:href="#aO"/><use transform="matrix(0.06172839506172839,0,0,0.06172839506172839,43.08641975308642,0)" xlink:href="#aw"/><use transform="matrix(0.06172839506172839,0,0,0.06172839506172839,55.432098765432094,0)" xlink:href="#aI"/></g><g id="W"><use transform="matrix(0.06172839506172839,0,0,0.06172839506172839,0,0)" xlink:href="#aD"/><use transform="matrix(0.06172839506172839,0,0,0.06172839506172839,11.11111111111111,0)" xlink:href="#au"/><use transform="matrix(0.06172839506172839,0,0,0.06172839506172839,22.22222222222222,0)" xlink:href="#ao"/><use transform="matrix(0.06172839506172839,0,0,0.06172839506172839,34.5679012345679,0)" xlink:href="#aN"/><use transform="matrix(0.06172839506172839,0,0,0.06172839506172839,39.44444444444444,0)" xlink:href="#aB"/><use transform="matrix(0.06172839506172839,0,0,0.06172839506172839,44.32098765432099,0)" xlink:href="#az"/><use transform="matrix(0.06172839506172839,0,0,0.06172839506172839,56.666666666666664,0)" xlink:href="#aO"/></g><g id="X"><use transform="matrix(0.06172839506172839,0,0,0.06172839506172839,0,0)" xlink:href="#aN"/><use transform="matrix(0.06172839506172839,0,0,0.06172839506172839,4.876543209876543,0)" xlink:href="#ao"/><use transform="matrix(0.06172839506172839,0,0,0.06172839506172839,17.22222222222222,0)" xlink:href="#ap"/><use transform="matrix(0.06172839506172839,0,0,0.06172839506172839,35.67901234567901,0)" xlink:href="#aq"/><use transform="matrix(0.06172839506172839,0,0,0.06172839506172839,48.02469135802469,0)" xlink:href="#ar"/><use transform="matrix(0.06172839506172839,0,0,0.06172839506172839,60.37037037037037,0)" xlink:href="#ao"/></g><g id="Y"><use transform="matrix(0.06172839506172839,0,0,0.06172839506172839,0,0)" xlink:href="#ao"/><use transform="matrix(0.06172839506172839,0,0,0.06172839506172839,12.345679012345679,0)" xlink:href="#ax"/></g><g id="Z"><use transform="matrix(0.06172839506172839,0,0,0.06172839506172839,0,0)" xlink:href="#aD"/><use transform="matrix(0.06172839506172839,0,0,0.06172839506172839,11.11111111111111,0)" xlink:href="#aS"/><use transform="matrix(0.06172839506172839,0,0,0.06172839506172839,23.45679012345679,0)" xlink:href="#aw"/><use transform="matrix(0.06172839506172839,0,0,0.06172839506172839,35.80246913580247,0)" xlink:href="#ar"/><use transform="matrix(0.06172839506172839,0,0,0.06172839506172839,48.148148148148145,0)" xlink:href="#at"/><use transform="matrix(0.06172839506172839,0,0,0.06172839506172839,60.49382716049382,0)" xlink:href="#aN"/><use transform="matrix(0.06172839506172839,0,0,0.06172839506172839,65.37037037037037,0)" xlink:href="#aw"/><use transform="matrix(0.06172839506172839,0,0,0.06172839506172839,77.71604938271605,0)" xlink:href="#ar"/></g><g id="aa"><use transform="matrix(0.06172839506172839,0,0,0.06172839506172839,0,0)" xlink:href="#ax"/><use transform="matrix(0.06172839506172839,0,0,0.06172839506172839,6.172839506172839,0)" xlink:href="#aB"/><use transform="matrix(0.06172839506172839,0,0,0.06172839506172839,11.049382716049383,0)" xlink:href="#ap"/><use transform="matrix(0.06172839506172839,0,0,0.06172839506172839,29.50617283950617,0)" xlink:href="#aw"/></g></defs></g></svg>